%TF.GenerationSoftware,KiCad,Pcbnew,9.0.7*%
%TF.CreationDate,2026-06-07T17:23:39+05:00*%
%TF.ProjectId,ClassicIIRevB,436c6173-7369-4634-9949-526576422e6b,rev?*%
%TF.SameCoordinates,Original*%
%TF.FileFunction,Soldermask,Bot*%
%TF.FilePolarity,Negative*%
%FSLAX46Y46*%
G04 Gerber Fmt 4.6, Leading zero omitted, Abs format (unit mm)*
G04 Created by KiCad (PCBNEW 9.0.7) date 2026-06-07 17:23:39*
%MOMM*%
%LPD*%
G01*
G04 APERTURE LIST*
G04 Aperture macros list*
%AMRoundRect*
0 Rectangle with rounded corners*
0 $1 Rounding radius*
0 $2 $3 $4 $5 $6 $7 $8 $9 X,Y pos of 4 corners*
0 Add a 4 corners polygon primitive as box body*
4,1,4,$2,$3,$4,$5,$6,$7,$8,$9,$2,$3,0*
0 Add four circle primitives for the rounded corners*
1,1,$1+$1,$2,$3*
1,1,$1+$1,$4,$5*
1,1,$1+$1,$6,$7*
1,1,$1+$1,$8,$9*
0 Add four rect primitives between the rounded corners*
20,1,$1+$1,$2,$3,$4,$5,0*
20,1,$1+$1,$4,$5,$6,$7,0*
20,1,$1+$1,$6,$7,$8,$9,0*
20,1,$1+$1,$8,$9,$2,$3,0*%
G04 Aperture macros list end*
%ADD10C,0.838200*%
%ADD11C,1.000000*%
%ADD12O,2.800000X1.800000*%
%ADD13O,1.905000X3.435000*%
%ADD14O,3.435000X1.905000*%
%ADD15RoundRect,0.250000X-0.473000X-0.473000X0.473000X-0.473000X0.473000X0.473000X-0.473000X0.473000X0*%
%ADD16C,1.446000*%
%ADD17RoundRect,0.240741X1.059259X1.059259X-1.059259X1.059259X-1.059259X-1.059259X1.059259X-1.059259X0*%
%ADD18C,2.600000*%
%ADD19RoundRect,0.238125X-0.523875X0.523875X-0.523875X-0.523875X0.523875X-0.523875X0.523875X0.523875X0*%
%ADD20C,1.524000*%
%ADD21R,1.700000X1.700000*%
%ADD22O,1.700000X1.700000*%
%ADD23C,1.800000*%
%ADD24O,1.905000X1.905000*%
%ADD25C,3.200000*%
%ADD26O,1.905000X3.440000*%
%ADD27O,3.440000X1.905000*%
%ADD28R,1.390000X1.390000*%
%ADD29C,1.390000*%
%ADD30C,6.000000*%
%ADD31R,1.600000X1.600000*%
%ADD32C,1.600000*%
%ADD33C,6.350000*%
%ADD34C,2.450000*%
%ADD35R,1.890000X1.890000*%
%ADD36C,1.890000*%
%ADD37RoundRect,0.102000X-0.765000X-0.765000X0.765000X-0.765000X0.765000X0.765000X-0.765000X0.765000X0*%
%ADD38C,1.734000*%
%ADD39C,1.700000*%
%ADD40C,1.200000*%
%ADD41R,2.550000X2.550000*%
%ADD42C,2.550000*%
%ADD43C,1.500000*%
%ADD44C,2.540000*%
%ADD45C,3.175000*%
%ADD46R,1.524000X1.524000*%
%ADD47RoundRect,0.224118X-0.537882X0.537882X-0.537882X-0.537882X0.537882X-0.537882X0.537882X0.537882X0*%
%ADD48RoundRect,0.224118X0.537882X-0.537882X0.537882X0.537882X-0.537882X0.537882X-0.537882X-0.537882X0*%
%ADD49RoundRect,0.264583X0.370417X0.560917X-0.370417X0.560917X-0.370417X-0.560917X0.370417X-0.560917X0*%
%ADD50RoundRect,0.254000X0.508000X0.254000X-0.508000X0.254000X-0.508000X-0.254000X0.508000X-0.254000X0*%
%ADD51RoundRect,0.254000X-0.508000X-0.254000X0.508000X-0.254000X0.508000X0.254000X-0.508000X0.254000X0*%
%ADD52RoundRect,0.327868X0.672132X0.772132X-0.672132X0.772132X-0.672132X-0.772132X0.672132X-0.772132X0*%
%ADD53RoundRect,0.264583X-0.370417X-0.560917X0.370417X-0.560917X0.370417X0.560917X-0.370417X0.560917X0*%
%ADD54RoundRect,0.391667X-1.075833X-0.783333X1.075833X-0.783333X1.075833X0.783333X-1.075833X0.783333X0*%
%ADD55RoundRect,0.327868X-0.672132X-0.772132X0.672132X-0.772132X0.672132X0.772132X-0.672132X0.772132X0*%
%ADD56R,1.905000X1.905000*%
%ADD57O,2.000000X0.635000*%
%ADD58RoundRect,0.391667X1.075833X0.783333X-1.075833X0.783333X-1.075833X-0.783333X1.075833X-0.783333X0*%
%ADD59RoundRect,0.239622X0.585878X0.395378X-0.585878X0.395378X-0.585878X-0.395378X0.585878X-0.395378X0*%
G04 APERTURE END LIST*
D10*
%TO.C,JP5*%
X226034600Y-42595800D03*
X228396800Y-42595800D03*
%TD*%
D11*
%TO.C,TP311*%
X184658000Y-117043200D03*
%TD*%
%TO.C,TP9*%
X75361800Y-37566600D03*
%TD*%
%TO.C,TP117*%
X238252000Y-79171800D03*
%TD*%
%TO.C,TP6*%
X69646800Y-37592000D03*
%TD*%
%TO.C,TP2*%
X53695600Y-37261800D03*
%TD*%
%TO.C,TP264*%
X210058000Y-139877800D03*
%TD*%
D12*
%TO.C,J7*%
X229253800Y-35611400D03*
X227253800Y-33811400D03*
X227253800Y-27711400D03*
X229253800Y-30111400D03*
X227253800Y-39311400D03*
%TD*%
D11*
%TO.C,TP77*%
X221488000Y-65582800D03*
%TD*%
%TO.C,TP128*%
X224942400Y-81051400D03*
%TD*%
%TO.C,TP110*%
X197891400Y-80416400D03*
%TD*%
%TO.C,TP31*%
X238226600Y-84277200D03*
%TD*%
%TO.C,TP124*%
X164541200Y-83388200D03*
%TD*%
%TO.C,TP270*%
X225298000Y-124637800D03*
%TD*%
D13*
%TO.C,J6*%
X203904800Y-29791400D03*
D14*
X210664800Y-28981400D03*
D13*
X217424800Y-29791400D03*
D15*
X207314800Y-32791400D03*
D16*
X214014800Y-32791400D03*
X207314800Y-35281400D03*
X214014800Y-35281400D03*
%TD*%
D11*
%TO.C,TP112*%
X206248000Y-82677000D03*
%TD*%
%TO.C,TP5*%
X64516000Y-37896800D03*
%TD*%
D17*
%TO.C,J11*%
X151053800Y-97256600D03*
D18*
X146853800Y-97256600D03*
X142653800Y-97256600D03*
X138453800Y-97256600D03*
X134253800Y-97256600D03*
X130053800Y-97256600D03*
X125853800Y-97256600D03*
X151053800Y-91756600D03*
X146853800Y-91756600D03*
X142653800Y-91756600D03*
X138453800Y-91756600D03*
X134253800Y-91756600D03*
X130053800Y-91756600D03*
X125853800Y-91756600D03*
%TD*%
D11*
%TO.C,TP131*%
X54025800Y-86487000D03*
%TD*%
%TO.C,TP214*%
X30835600Y-75387200D03*
%TD*%
%TO.C,TP65*%
X77571600Y-67106800D03*
%TD*%
%TO.C,TP159*%
X200456800Y-96977200D03*
%TD*%
%TO.C,TP109*%
X185572400Y-82677000D03*
%TD*%
D19*
%TO.C,ZU23*%
X213868000Y-130962400D03*
D20*
X211328000Y-130962400D03*
X208788000Y-130962400D03*
X206248000Y-130962400D03*
X203708000Y-130962400D03*
X201168000Y-130962400D03*
X198628000Y-130962400D03*
X196088000Y-130962400D03*
X193548000Y-130962400D03*
X191008000Y-130962400D03*
X188468000Y-130962400D03*
X185928000Y-130962400D03*
X183388000Y-130962400D03*
X180848000Y-130962400D03*
X178308000Y-130962400D03*
X175768000Y-130962400D03*
X173228000Y-130962400D03*
X170688000Y-130962400D03*
X168148000Y-130962400D03*
X165608000Y-130962400D03*
X163068000Y-130962400D03*
X163068000Y-146202400D03*
X165608000Y-146202400D03*
X168148000Y-146202400D03*
X170688000Y-146202400D03*
X173228000Y-146202400D03*
X175768000Y-146202400D03*
X178308000Y-146202400D03*
X180848000Y-146202400D03*
X183388000Y-146202400D03*
X185928000Y-146202400D03*
X188468000Y-146202400D03*
X191008000Y-146202400D03*
X193548000Y-146202400D03*
X196088000Y-146202400D03*
X198628000Y-146202400D03*
X201168000Y-146202400D03*
X203708000Y-146202400D03*
X206248000Y-146202400D03*
X208788000Y-146202400D03*
X211328000Y-146202400D03*
X213868000Y-146202400D03*
%TD*%
D11*
%TO.C,TP171*%
X240817400Y-98247200D03*
%TD*%
%TO.C,TP93*%
X61315600Y-78257400D03*
%TD*%
%TO.C,TP83*%
X96850200Y-72517000D03*
%TD*%
D21*
%TO.C,LP3*%
X224002600Y-50622200D03*
D22*
X224002600Y-48082200D03*
X224002600Y-45542200D03*
X221462600Y-45542200D03*
X221462600Y-48082200D03*
X221462600Y-50622200D03*
%TD*%
D11*
%TO.C,TP145*%
X191643000Y-89027000D03*
%TD*%
%TO.C,TP3*%
X56565800Y-37261800D03*
%TD*%
%TO.C,TP304*%
X164312600Y-114503200D03*
%TD*%
%TO.C,TP19*%
X91160600Y-45847000D03*
%TD*%
%TO.C,TP190*%
X139852400Y-122072400D03*
%TD*%
%TO.C,TP94*%
X68351400Y-77952600D03*
%TD*%
D23*
%TO.C,S1*%
X37466600Y-47447200D03*
X37466600Y-57480200D03*
D24*
X34010600Y-49987200D03*
X34010600Y-54987200D03*
%TD*%
D11*
%TO.C,TP279*%
X210058000Y-129616200D03*
%TD*%
%TO.C,TP148*%
X240842800Y-90652600D03*
%TD*%
%TO.C,TP12*%
X108381800Y-38227000D03*
%TD*%
%TO.C,TP119*%
X72491600Y-84251800D03*
%TD*%
%TO.C,TP127*%
X216433400Y-82677000D03*
%TD*%
%TO.C,TP218*%
X204927200Y-111937800D03*
%TD*%
%TO.C,TP261*%
X225298000Y-134797800D03*
%TD*%
%TO.C,TP316*%
X169418000Y-119532400D03*
%TD*%
%TO.C,TP79*%
X139446000Y-68376800D03*
%TD*%
D25*
%TO.C,ZH4*%
X242665250Y-149002750D03*
%TD*%
D11*
%TO.C,TP307*%
X149021800Y-116992400D03*
%TD*%
%TO.C,TP138*%
X149047200Y-147574000D03*
%TD*%
D26*
%TO.C,J2*%
X50978800Y-29791400D03*
D27*
X57738800Y-28981400D03*
D26*
X64498800Y-29791400D03*
D28*
X56438800Y-32791400D03*
D29*
X59038800Y-32791400D03*
X54388800Y-32791400D03*
X56438800Y-35281400D03*
X61088800Y-32791400D03*
X54388800Y-35281400D03*
X58548800Y-35281400D03*
X61088800Y-35281400D03*
%TD*%
D11*
%TO.C,TP8*%
X72237600Y-37566600D03*
%TD*%
%TO.C,TP217*%
X164338000Y-111937800D03*
%TD*%
%TO.C,TP315*%
X169418000Y-116992400D03*
%TD*%
%TO.C,TP265*%
X204952600Y-144983200D03*
%TD*%
D10*
%TO.C,JP2*%
X42748200Y-74777600D03*
X40386000Y-74777600D03*
%TD*%
D30*
%TO.C,J5*%
X193759600Y-33296400D03*
X154969600Y-33296400D03*
D31*
X161899600Y-34696400D03*
D32*
X164669600Y-34696400D03*
X167439600Y-34696400D03*
X170209600Y-34696400D03*
X172979600Y-34696400D03*
X175749600Y-34696400D03*
X178519600Y-34696400D03*
X181289600Y-34696400D03*
X184059600Y-34696400D03*
X186829600Y-34696400D03*
X163284600Y-31856400D03*
X166054600Y-31856400D03*
X168824600Y-31856400D03*
X171594600Y-31856400D03*
X174364600Y-31856400D03*
X177134600Y-31856400D03*
X179904600Y-31856400D03*
X182674600Y-31856400D03*
X185444600Y-31856400D03*
%TD*%
D11*
%TO.C,TP195*%
X150291800Y-51155600D03*
%TD*%
%TO.C,TP241*%
X225323400Y-150088600D03*
%TD*%
%TO.C,TP303*%
X164312600Y-116992400D03*
%TD*%
D33*
%TO.C,J4*%
X140779400Y-33301800D03*
X93679400Y-33301800D03*
D31*
X100609400Y-34721800D03*
D32*
X103379400Y-34721800D03*
X106149400Y-34721800D03*
X108919400Y-34721800D03*
X111689400Y-34721800D03*
X114459400Y-34721800D03*
X117229400Y-34721800D03*
X119999400Y-34721800D03*
X122769400Y-34721800D03*
X125539400Y-34721800D03*
X128309400Y-34721800D03*
X131079400Y-34721800D03*
X133849400Y-34721800D03*
X101994400Y-31881800D03*
X104764400Y-31881800D03*
X107534400Y-31881800D03*
X110304400Y-31881800D03*
X113074400Y-31881800D03*
X115844400Y-31881800D03*
X118614400Y-31881800D03*
X121384400Y-31881800D03*
X124154400Y-31881800D03*
X126924400Y-31881800D03*
X129694400Y-31881800D03*
X132464400Y-31881800D03*
%TD*%
D11*
%TO.C,TP116*%
X215163400Y-80441800D03*
%TD*%
%TO.C,TP41*%
X208102200Y-55981600D03*
%TD*%
D23*
%TO.C,S2*%
X37466600Y-64617600D03*
X37466600Y-74650600D03*
D24*
X34010600Y-67157600D03*
X34010600Y-72157600D03*
%TD*%
D11*
%TO.C,TP113*%
X210083400Y-80441800D03*
%TD*%
%TO.C,TP324*%
X189712600Y-119557800D03*
%TD*%
%TO.C,TP305*%
X148996400Y-111937800D03*
%TD*%
D19*
%TO.C,ZU22*%
X213868000Y-110540800D03*
D20*
X211328000Y-110540800D03*
X208788000Y-110540800D03*
X206248000Y-110540800D03*
X203708000Y-110540800D03*
X201168000Y-110540800D03*
X198628000Y-110540800D03*
X196088000Y-110540800D03*
X193548000Y-110540800D03*
X191008000Y-110540800D03*
X188468000Y-110540800D03*
X185928000Y-110540800D03*
X183388000Y-110540800D03*
X180848000Y-110540800D03*
X178308000Y-110540800D03*
X175768000Y-110540800D03*
X173228000Y-110540800D03*
X170688000Y-110540800D03*
X168148000Y-110540800D03*
X165608000Y-110540800D03*
X163068000Y-110540800D03*
X163068000Y-125780800D03*
X165608000Y-125780800D03*
X168148000Y-125780800D03*
X170688000Y-125780800D03*
X173228000Y-125780800D03*
X175768000Y-125780800D03*
X178308000Y-125780800D03*
X180848000Y-125780800D03*
X183388000Y-125780800D03*
X185928000Y-125780800D03*
X188468000Y-125780800D03*
X191008000Y-125780800D03*
X193548000Y-125780800D03*
X196088000Y-125780800D03*
X198628000Y-125780800D03*
X201168000Y-125780800D03*
X203708000Y-125780800D03*
X206248000Y-125780800D03*
X208788000Y-125780800D03*
X211328000Y-125780800D03*
X213868000Y-125780800D03*
%TD*%
D11*
%TO.C,TP320*%
X204927200Y-114528600D03*
%TD*%
%TO.C,TP115*%
X211328000Y-82677000D03*
%TD*%
%TO.C,TP186*%
X128066800Y-111607600D03*
%TD*%
%TO.C,TP7*%
X67081400Y-37896800D03*
%TD*%
%TO.C,TP25*%
X50520600Y-51536600D03*
%TD*%
%TO.C,TP11*%
X88011000Y-39801800D03*
%TD*%
D34*
%TO.C,BT1*%
X177727200Y-74726800D03*
D35*
X170637200Y-74726800D03*
D36*
X170637200Y-104186800D03*
%TD*%
D11*
%TO.C,TP239*%
X164363400Y-150088600D03*
%TD*%
D19*
%TO.C,U23*%
X211328000Y-130962400D03*
D20*
X208788000Y-130962400D03*
X206248000Y-130962400D03*
X203708000Y-130962400D03*
X201168000Y-130962400D03*
X198628000Y-130962400D03*
X196088000Y-130962400D03*
X193548000Y-130962400D03*
X191008000Y-130962400D03*
X188468000Y-130962400D03*
X185928000Y-130962400D03*
X183388000Y-130962400D03*
X180848000Y-130962400D03*
X178308000Y-130962400D03*
X175768000Y-130962400D03*
X173228000Y-130962400D03*
X170688000Y-130962400D03*
X168148000Y-130962400D03*
X165608000Y-130962400D03*
X163068000Y-130962400D03*
X163068000Y-146202400D03*
X165608000Y-146202400D03*
X168148000Y-146202400D03*
X170688000Y-146202400D03*
X173228000Y-146202400D03*
X175768000Y-146202400D03*
X178308000Y-146202400D03*
X180848000Y-146202400D03*
X183388000Y-146202400D03*
X185928000Y-146202400D03*
X188468000Y-146202400D03*
X191008000Y-146202400D03*
X193548000Y-146202400D03*
X196088000Y-146202400D03*
X198628000Y-146202400D03*
X201168000Y-146202400D03*
X203708000Y-146202400D03*
X206248000Y-146202400D03*
X208788000Y-146202400D03*
X211328000Y-146202400D03*
%TD*%
D10*
%TO.C,JP4*%
X42748200Y-77317600D03*
X40386000Y-77317600D03*
%TD*%
D11*
%TO.C,TP240*%
X210058000Y-147548600D03*
%TD*%
%TO.C,TP155*%
X116611400Y-95097600D03*
%TD*%
%TO.C,TP312*%
X184658000Y-114477800D03*
%TD*%
%TO.C,TP143*%
X92405200Y-90017600D03*
%TD*%
%TO.C,TP24*%
X97536000Y-48666400D03*
%TD*%
D37*
%TO.C,J10*%
X233070400Y-51257200D03*
D38*
X235610400Y-51257200D03*
X233070400Y-53797200D03*
X235610400Y-53797200D03*
X233070400Y-56337200D03*
X235610400Y-56337200D03*
X233070400Y-58877200D03*
X235610400Y-58877200D03*
X233070400Y-61417200D03*
X235610400Y-61417200D03*
X233070400Y-63957200D03*
X235610400Y-63957200D03*
X233070400Y-66497200D03*
X235610400Y-66497200D03*
X233070400Y-69037200D03*
X235610400Y-69037200D03*
X233070400Y-71577200D03*
X235610400Y-71577200D03*
X233070400Y-74117200D03*
X235610400Y-74117200D03*
X233070400Y-76657200D03*
X235610400Y-76657200D03*
X233070400Y-79197200D03*
X235610400Y-79197200D03*
X233070400Y-81737200D03*
X235610400Y-81737200D03*
X233070400Y-84277200D03*
X235610400Y-84277200D03*
X233070400Y-86817200D03*
X235610400Y-86817200D03*
X233070400Y-89357200D03*
X235610400Y-89357200D03*
X233070400Y-91897200D03*
X235610400Y-91897200D03*
X233070400Y-94437200D03*
X235610400Y-94437200D03*
X233070400Y-96977200D03*
X235610400Y-96977200D03*
X233070400Y-99517200D03*
X235610400Y-99517200D03*
X233070400Y-102057200D03*
X235610400Y-102057200D03*
X233070400Y-104597200D03*
X235610400Y-104597200D03*
X233070400Y-107137200D03*
X235610400Y-107137200D03*
X233070400Y-109677200D03*
X235610400Y-109677200D03*
X233070400Y-112217200D03*
X235610400Y-112217200D03*
%TD*%
D21*
%TO.C,J13*%
X232130600Y-129413000D03*
D22*
X232130600Y-131953000D03*
X229590600Y-129413000D03*
D39*
X229590600Y-131953000D03*
D22*
X227050600Y-129413000D03*
X227050600Y-131953000D03*
%TD*%
D11*
%TO.C,TP322*%
X189738000Y-114452400D03*
%TD*%
%TO.C,TP306*%
X149021800Y-114503200D03*
%TD*%
%TO.C,TP10*%
X78206600Y-37515800D03*
%TD*%
%TO.C,TP130*%
X240792000Y-82981800D03*
%TD*%
D21*
%TO.C,LP2*%
X204876400Y-44221400D03*
D22*
X202336400Y-44221400D03*
X199796400Y-44221400D03*
X197256400Y-44221400D03*
X197256400Y-41681400D03*
X199796400Y-41681400D03*
X202336400Y-41681400D03*
X204876400Y-41681400D03*
%TD*%
D11*
%TO.C,TP255*%
X240817400Y-88112600D03*
%TD*%
%TO.C,TP111*%
X207162400Y-80111600D03*
%TD*%
%TO.C,TP154*%
X103301800Y-95072200D03*
%TD*%
D25*
%TO.C,ZH3*%
X242665250Y-30734000D03*
%TD*%
D11*
%TO.C,TP170*%
X203022200Y-98221800D03*
%TD*%
%TO.C,TP1*%
X51155600Y-37261800D03*
%TD*%
D10*
%TO.C,JP3*%
X42748200Y-76047600D03*
X40386000Y-76047600D03*
%TD*%
D11*
%TO.C,TP146*%
X206832200Y-93472000D03*
%TD*%
D40*
%TO.C,J1*%
X45436800Y-28168600D03*
X35436800Y-28168600D03*
X40436800Y-33168600D03*
X45436800Y-38168600D03*
X35436800Y-38168600D03*
D41*
X40436800Y-28168600D03*
D42*
X35436800Y-33168600D03*
X45436800Y-33168600D03*
D43*
X42936800Y-38168600D03*
X40436800Y-38168600D03*
X37936800Y-38168600D03*
X42936800Y-40668600D03*
X40436800Y-40668600D03*
X37936800Y-40668600D03*
%TD*%
D11*
%TO.C,TP18*%
X93726000Y-45466000D03*
%TD*%
%TO.C,TP32*%
X60985400Y-54432200D03*
%TD*%
%TO.C,TP313*%
X169418000Y-111937800D03*
%TD*%
%TO.C,TP308*%
X149047200Y-119608600D03*
%TD*%
%TO.C,TP147*%
X238226600Y-89357200D03*
%TD*%
%TO.C,TP125*%
X208788000Y-82981800D03*
%TD*%
%TO.C,TP100*%
X96240600Y-78257400D03*
%TD*%
%TO.C,Y1*%
X185877200Y-92887800D03*
X183337200Y-92887800D03*
%TD*%
%TO.C,TP323*%
X189738000Y-117043200D03*
%TD*%
%TO.C,TP129*%
X238252000Y-81737200D03*
%TD*%
%TO.C,TP266*%
X184632600Y-147548600D03*
%TD*%
%TO.C,TP101*%
X240817400Y-77901800D03*
%TD*%
%TO.C,TP99*%
X92430600Y-78257400D03*
%TD*%
%TO.C,TP44*%
X41021000Y-60198000D03*
%TD*%
%TO.C,TP36*%
X102997000Y-55372000D03*
%TD*%
D44*
%TO.C,J12*%
X32791400Y-141478000D03*
D45*
X125501400Y-141478000D03*
D44*
X32791400Y-128778000D03*
D45*
X125501400Y-128778000D03*
D46*
X42316400Y-141478000D03*
D20*
X44856400Y-141478000D03*
X47396400Y-141478000D03*
X49936400Y-141478000D03*
X52476400Y-141478000D03*
X55016400Y-141478000D03*
X57556400Y-141478000D03*
X60096400Y-141478000D03*
X62636400Y-141478000D03*
X65176400Y-141478000D03*
X67716400Y-141478000D03*
X70256400Y-141478000D03*
X72796400Y-141478000D03*
X75336400Y-141478000D03*
X77876400Y-141478000D03*
X80416400Y-141478000D03*
X82956400Y-141478000D03*
X85496400Y-141478000D03*
X88036400Y-141478000D03*
X90576400Y-141478000D03*
X93116400Y-141478000D03*
X95656400Y-141478000D03*
X98196400Y-141478000D03*
X100736400Y-141478000D03*
X103276400Y-141478000D03*
X105816400Y-141478000D03*
X108356400Y-141478000D03*
X110896400Y-141478000D03*
X113436400Y-141478000D03*
X115976400Y-141478000D03*
X42316400Y-128778000D03*
X44856400Y-128778000D03*
X47396400Y-128778000D03*
X49936400Y-128778000D03*
X52476400Y-128778000D03*
X55016400Y-128778000D03*
X57556400Y-128778000D03*
X60096400Y-128778000D03*
X62636400Y-128778000D03*
X65176400Y-128778000D03*
X67716400Y-128778000D03*
X70256400Y-128778000D03*
X72796400Y-128778000D03*
X75336400Y-128778000D03*
X77876400Y-128778000D03*
X80416400Y-128778000D03*
X82956400Y-128778000D03*
X85496400Y-128778000D03*
X88036400Y-128778000D03*
X90576400Y-128778000D03*
X93116400Y-128778000D03*
X95656400Y-128778000D03*
X98196400Y-128778000D03*
X100736400Y-128778000D03*
X103276400Y-128778000D03*
X105816400Y-128778000D03*
X108356400Y-128778000D03*
X110896400Y-128778000D03*
X113436400Y-128778000D03*
X115976400Y-128778000D03*
%TD*%
D10*
%TO.C,JP6*%
X226034600Y-44196000D03*
X228396800Y-44196000D03*
%TD*%
D47*
%TO.C,J8*%
X156819600Y-42875200D03*
D20*
X156819600Y-45415200D03*
X154279600Y-42875200D03*
X154279600Y-45415200D03*
X151739600Y-42875200D03*
X151739600Y-45415200D03*
X149199600Y-42875200D03*
X149199600Y-45415200D03*
X146659600Y-42875200D03*
X146659600Y-45415200D03*
X144119600Y-42875200D03*
X144119600Y-45415200D03*
X141579600Y-42875200D03*
X141579600Y-45415200D03*
X139039600Y-42875200D03*
X139039600Y-45415200D03*
X136499600Y-42875200D03*
X136499600Y-45415200D03*
X133959600Y-42875200D03*
X133959600Y-45415200D03*
X131419600Y-42875200D03*
X131419600Y-45415200D03*
X128879600Y-42875200D03*
X128879600Y-45415200D03*
X126339600Y-42875200D03*
X126339600Y-45415200D03*
X123799600Y-42875200D03*
X123799600Y-45415200D03*
X121259600Y-42875200D03*
X121259600Y-45415200D03*
X118719600Y-42875200D03*
X118719600Y-45415200D03*
X116179600Y-42875200D03*
X116179600Y-45415200D03*
X113639600Y-42875200D03*
X113639600Y-45415200D03*
X111099600Y-42875200D03*
X111099600Y-45415200D03*
X108559600Y-42875200D03*
X108559600Y-45415200D03*
X106019600Y-42875200D03*
X106019600Y-45415200D03*
X103479600Y-42875200D03*
X103479600Y-45415200D03*
X100939600Y-42875200D03*
X100939600Y-45415200D03*
X98399600Y-42875200D03*
X98399600Y-45415200D03*
X95859600Y-42875200D03*
X95859600Y-45415200D03*
%TD*%
D11*
%TO.C,TP33*%
X63525400Y-54737000D03*
%TD*%
D48*
%TO.C,J9*%
X168071800Y-62687200D03*
D20*
X168071800Y-60147200D03*
X170611800Y-62687200D03*
X170611800Y-60147200D03*
X173151800Y-62687200D03*
X173151800Y-60147200D03*
X175691800Y-62687200D03*
X175691800Y-60147200D03*
X178231800Y-62687200D03*
X178231800Y-60147200D03*
X180771800Y-62687200D03*
X180771800Y-60147200D03*
X183311800Y-62687200D03*
X183311800Y-60147200D03*
X185851800Y-62687200D03*
X185851800Y-60147200D03*
X188391800Y-62687200D03*
X188391800Y-60147200D03*
X190931800Y-62687200D03*
X190931800Y-60147200D03*
%TD*%
D11*
%TO.C,TP216*%
X39420800Y-70916800D03*
%TD*%
%TO.C,TP267*%
X169367200Y-145008600D03*
%TD*%
%TO.C,TP80*%
X218338400Y-68376800D03*
%TD*%
%TO.C,TP302*%
X164312600Y-119608600D03*
%TD*%
%TO.C,TP64*%
X68961000Y-67437000D03*
%TD*%
%TO.C,TP215*%
X146786600Y-114198400D03*
%TD*%
D19*
%TO.C,U22*%
X211328000Y-110540800D03*
D20*
X208788000Y-110540800D03*
X206248000Y-110540800D03*
X203708000Y-110540800D03*
X201168000Y-110540800D03*
X198628000Y-110540800D03*
X196088000Y-110540800D03*
X193548000Y-110540800D03*
X191008000Y-110540800D03*
X188468000Y-110540800D03*
X185928000Y-110540800D03*
X183388000Y-110540800D03*
X180848000Y-110540800D03*
X178308000Y-110540800D03*
X175768000Y-110540800D03*
X173228000Y-110540800D03*
X170688000Y-110540800D03*
X168148000Y-110540800D03*
X165608000Y-110540800D03*
X163068000Y-110540800D03*
X163068000Y-125780800D03*
X165608000Y-125780800D03*
X168148000Y-125780800D03*
X170688000Y-125780800D03*
X173228000Y-125780800D03*
X175768000Y-125780800D03*
X178308000Y-125780800D03*
X180848000Y-125780800D03*
X183388000Y-125780800D03*
X185928000Y-125780800D03*
X188468000Y-125780800D03*
X191008000Y-125780800D03*
X193548000Y-125780800D03*
X196088000Y-125780800D03*
X198628000Y-125780800D03*
X201168000Y-125780800D03*
X203708000Y-125780800D03*
X206248000Y-125780800D03*
X208788000Y-125780800D03*
X211328000Y-125780800D03*
%TD*%
D11*
%TO.C,TP87*%
X44551600Y-74422000D03*
%TD*%
%TO.C,TP71*%
X201726800Y-65836800D03*
%TD*%
D25*
%TO.C,ZH1*%
X30734000Y-149002750D03*
%TD*%
D11*
%TO.C,TP317*%
X169418000Y-122123200D03*
%TD*%
D31*
%TO.C,G1*%
X126161800Y-107162600D03*
D32*
X110921800Y-107162600D03*
X110921800Y-114782600D03*
X126161800Y-114782600D03*
%TD*%
D11*
%TO.C,TP321*%
X189712600Y-111912400D03*
%TD*%
D25*
%TO.C,ZH2*%
X30734000Y-30734000D03*
%TD*%
D11*
%TO.C,TP189*%
X86410800Y-120167400D03*
%TD*%
%TO.C,TP90*%
X53060600Y-77597000D03*
%TD*%
%TO.C,TP325*%
X189712600Y-122097800D03*
%TD*%
%TO.C,TP86*%
X223723200Y-71907400D03*
%TD*%
%TO.C,TP262*%
X210032600Y-132384800D03*
%TD*%
D10*
%TO.C,JP1*%
X42748200Y-73507600D03*
X40386000Y-73507600D03*
%TD*%
D11*
%TO.C,TP319*%
X204927200Y-117043200D03*
%TD*%
%TO.C,TP168*%
X118846600Y-100457000D03*
%TD*%
%TO.C,TP314*%
X169418000Y-114503200D03*
%TD*%
%TO.C,TP219*%
X184658000Y-111937800D03*
%TD*%
%TO.C,TP29*%
X238252000Y-86817200D03*
%TD*%
%TO.C,TP263*%
X225323400Y-142443200D03*
%TD*%
D21*
%TO.C,LP1*%
X49403000Y-45034200D03*
D22*
X51943000Y-45034200D03*
X54483000Y-45034200D03*
X54483000Y-42494200D03*
X51943000Y-42494200D03*
X49403000Y-42494200D03*
%TD*%
D11*
%TO.C,TP310*%
X184658000Y-119532400D03*
%TD*%
%TO.C,TP169*%
X199212200Y-99517200D03*
%TD*%
%TO.C,TP318*%
X204927200Y-119532400D03*
%TD*%
%TO.C,TP141*%
X66370200Y-89662000D03*
%TD*%
%TO.C,TP126*%
X213868000Y-82651600D03*
%TD*%
D26*
%TO.C,J3*%
X70079600Y-29791400D03*
D27*
X76839600Y-28981400D03*
D26*
X83599600Y-29791400D03*
D28*
X75539600Y-32791400D03*
D29*
X78139600Y-32791400D03*
X73489600Y-32791400D03*
X75539600Y-35281400D03*
X80189600Y-32791400D03*
X73489600Y-35281400D03*
X77649600Y-35281400D03*
X80189600Y-35281400D03*
%TD*%
D11*
%TO.C,TP309*%
X149047200Y-122097800D03*
%TD*%
%TO.C,TP118*%
X240792000Y-80441800D03*
%TD*%
%TO.C,TP114*%
X212623400Y-80467200D03*
%TD*%
%TO.C,TP150*%
X63830200Y-93853000D03*
%TD*%
%TO.C,TP149*%
X38811200Y-94234000D03*
%TD*%
D49*
%TO.C,R55*%
X189103000Y-89281000D03*
X186817000Y-89281000D03*
%TD*%
D50*
%TO.C,C50*%
X181127400Y-67081400D03*
X178993800Y-67081400D03*
%TD*%
%TO.C,C104*%
X45491400Y-120650000D03*
X43357800Y-120650000D03*
%TD*%
D51*
%TO.C,C2*%
X182880000Y-39725600D03*
X185013600Y-39725600D03*
%TD*%
D50*
%TO.C,C45*%
X44881800Y-59563000D03*
X42748200Y-59563000D03*
%TD*%
D51*
%TO.C,C29*%
X213969600Y-47421800D03*
X216103200Y-47421800D03*
%TD*%
%TO.C,C16*%
X233705400Y-38811200D03*
X235839000Y-38811200D03*
%TD*%
D49*
%TO.C,R81*%
X35712400Y-104724200D03*
X33426400Y-104724200D03*
%TD*%
D50*
%TO.C,C46*%
X44881800Y-62611000D03*
X42748200Y-62611000D03*
%TD*%
D49*
%TO.C,R15*%
X228523800Y-62509400D03*
X226237800Y-62509400D03*
%TD*%
D50*
%TO.C,C65*%
X203454000Y-77698600D03*
X201320400Y-77698600D03*
%TD*%
D11*
%TO.C,TP13*%
X56108600Y-41071800D03*
%TD*%
%TO.C,TP97*%
X184886600Y-74701400D03*
%TD*%
D49*
%TO.C,R14*%
X43561000Y-50546000D03*
X41275000Y-50546000D03*
%TD*%
D50*
%TO.C,C89*%
X151130000Y-102768400D03*
X148996400Y-102768400D03*
%TD*%
D52*
%TO.C,L8*%
X76657200Y-75793600D03*
X72085200Y-75793600D03*
%TD*%
D11*
%TO.C,TP178*%
X240817400Y-103682800D03*
%TD*%
D51*
%TO.C,C66*%
X186639200Y-77317600D03*
X188772800Y-77317600D03*
%TD*%
D11*
%TO.C,TP136*%
X54279800Y-67767200D03*
%TD*%
%TO.C,TP179*%
X33680400Y-106857800D03*
%TD*%
D50*
%TO.C,C108*%
X223799400Y-58623200D03*
X221665800Y-58623200D03*
%TD*%
D53*
%TO.C,R61*%
X56210200Y-89992200D03*
X58496200Y-89992200D03*
%TD*%
D49*
%TO.C,R35*%
X61341000Y-66167000D03*
X59055000Y-66167000D03*
%TD*%
D11*
%TO.C,TP88*%
X46736000Y-76682600D03*
%TD*%
D50*
%TO.C,C59*%
X80416400Y-71831200D03*
X78282800Y-71831200D03*
%TD*%
D53*
%TO.C,R38*%
X215722200Y-71602600D03*
X218008200Y-71602600D03*
%TD*%
D51*
%TO.C,C18*%
X213969600Y-39725600D03*
X216103200Y-39725600D03*
%TD*%
D49*
%TO.C,R8*%
X216585800Y-54356000D03*
X214299800Y-54356000D03*
%TD*%
D53*
%TO.C,R75*%
X49276000Y-99568000D03*
X51562000Y-99568000D03*
%TD*%
D49*
%TO.C,R77*%
X69672200Y-101600000D03*
X67386200Y-101600000D03*
%TD*%
D11*
%TO.C,TP69*%
X148945600Y-67132200D03*
%TD*%
D49*
%TO.C,R31*%
X51892200Y-62661800D03*
X49606200Y-62661800D03*
%TD*%
D11*
%TO.C,TP28*%
X169189400Y-51181000D03*
%TD*%
%TO.C,TP183*%
X61239400Y-109093000D03*
%TD*%
D51*
%TO.C,C22*%
X213969600Y-43611800D03*
X216103200Y-43611800D03*
%TD*%
D49*
%TO.C,R91*%
X214020400Y-138379200D03*
X211734400Y-138379200D03*
%TD*%
D51*
%TO.C,C73*%
X219049600Y-85547200D03*
X221183200Y-85547200D03*
%TD*%
D11*
%TO.C,TP165*%
X59664600Y-100838000D03*
%TD*%
D53*
%TO.C,R20*%
X90855800Y-57099200D03*
X93141800Y-57099200D03*
%TD*%
D11*
%TO.C,TP92*%
X63500000Y-76327000D03*
%TD*%
D51*
%TO.C,C67*%
X143357600Y-79197200D03*
X145491200Y-79197200D03*
%TD*%
D11*
%TO.C,TP121*%
X81991200Y-83616800D03*
%TD*%
D49*
%TO.C,R17*%
X221335600Y-63677800D03*
X219049600Y-63677800D03*
%TD*%
D53*
%TO.C,R80*%
X67056000Y-104597200D03*
X69342000Y-104597200D03*
%TD*%
%TO.C,R92*%
X108966000Y-135178800D03*
X111252000Y-135178800D03*
%TD*%
D49*
%TO.C,R4*%
X190728600Y-47371000D03*
X188442600Y-47371000D03*
%TD*%
D51*
%TO.C,C27*%
X163042600Y-43561000D03*
X165176200Y-43561000D03*
%TD*%
D53*
%TO.C,R93*%
X96951800Y-135178800D03*
X99237800Y-135178800D03*
%TD*%
D49*
%TO.C,R79*%
X100507800Y-104952800D03*
X98221800Y-104952800D03*
%TD*%
%TO.C,R21*%
X74930000Y-56642000D03*
X72644000Y-56642000D03*
%TD*%
%TO.C,R5*%
X216179400Y-51206400D03*
X213893400Y-51206400D03*
%TD*%
D50*
%TO.C,C60*%
X70764400Y-71831200D03*
X68630800Y-71831200D03*
%TD*%
D51*
%TO.C,C83*%
X156057600Y-97637600D03*
X158191200Y-97637600D03*
%TD*%
D50*
%TO.C,C33*%
X46405800Y-46863000D03*
X44272200Y-46863000D03*
%TD*%
D53*
%TO.C,R87*%
X57251600Y-119888000D03*
X59537600Y-119888000D03*
%TD*%
%TO.C,R27*%
X194665600Y-62611000D03*
X196951600Y-62611000D03*
%TD*%
D54*
%TO.C,C84*%
X87192500Y-95250000D03*
X91877500Y-95250000D03*
%TD*%
D49*
%TO.C,R89*%
X158699200Y-128447800D03*
X156413200Y-128447800D03*
%TD*%
D53*
%TO.C,R25*%
X59055000Y-59791600D03*
X61341000Y-59791600D03*
%TD*%
D50*
%TO.C,C58*%
X97815400Y-74447400D03*
X95681800Y-74447400D03*
%TD*%
%TO.C,C96*%
X35483800Y-100990400D03*
X33350200Y-100990400D03*
%TD*%
D49*
%TO.C,C69*%
X51892200Y-75412600D03*
X49606200Y-75412600D03*
%TD*%
D50*
%TO.C,C95*%
X46431200Y-101752400D03*
X44297600Y-101752400D03*
%TD*%
D55*
%TO.C,L11*%
X178790600Y-104114600D03*
X183362600Y-104114600D03*
%TD*%
D50*
%TO.C,C77*%
X78917800Y-86233000D03*
X76784200Y-86233000D03*
%TD*%
D49*
%TO.C,R18*%
X205155800Y-57683400D03*
X202869800Y-57683400D03*
%TD*%
%TO.C,R73*%
X59156600Y-98323400D03*
X56870600Y-98323400D03*
%TD*%
D50*
%TO.C,C75*%
X196342000Y-84886800D03*
X194208400Y-84886800D03*
%TD*%
D49*
%TO.C,R19*%
X198551800Y-57785000D03*
X196265800Y-57785000D03*
%TD*%
D11*
%TO.C,TP160*%
X240817400Y-95783400D03*
%TD*%
D49*
%TO.C,R50*%
X114046000Y-85572600D03*
X111760000Y-85572600D03*
%TD*%
D51*
%TO.C,C37*%
X153060400Y-57150000D03*
X155194000Y-57150000D03*
%TD*%
D50*
%TO.C,C25*%
X171577000Y-43561000D03*
X169443400Y-43561000D03*
%TD*%
D11*
%TO.C,TP78*%
X97205800Y-68707000D03*
%TD*%
D54*
%TO.C,C93*%
X87192500Y-100177600D03*
X91877500Y-100177600D03*
%TD*%
D53*
%TO.C,R29*%
X66421000Y-63627000D03*
X68707000Y-63627000D03*
%TD*%
%TO.C,R51*%
X202717400Y-88671400D03*
X205003400Y-88671400D03*
%TD*%
D49*
%TO.C,R60*%
X64262000Y-90170000D03*
X61976000Y-90170000D03*
%TD*%
%TO.C,R33*%
X223139000Y-68630800D03*
X220853000Y-68630800D03*
%TD*%
D50*
%TO.C,C44*%
X45897800Y-53721000D03*
X43764200Y-53721000D03*
%TD*%
D49*
%TO.C,R13*%
X96139000Y-51866800D03*
X93853000Y-51866800D03*
%TD*%
D53*
%TO.C,R49*%
X148412200Y-86842600D03*
X150698200Y-86842600D03*
%TD*%
D50*
%TO.C,C91*%
X113055400Y-99949000D03*
X110921800Y-99949000D03*
%TD*%
D51*
%TO.C,C23*%
X182880000Y-43561000D03*
X185013600Y-43561000D03*
%TD*%
D49*
%TO.C,R97*%
X197459600Y-53340000D03*
X195173600Y-53340000D03*
%TD*%
D51*
%TO.C,C103*%
X49301400Y-120650000D03*
X51435000Y-120650000D03*
%TD*%
D11*
%TO.C,TP177*%
X108280200Y-104648000D03*
%TD*%
D56*
%TO.C,RC2*%
X59092900Y-52458900D03*
D57*
X59080400Y-50571400D03*
X59080400Y-49301400D03*
X59080400Y-48031400D03*
X59080400Y-46761400D03*
X59080400Y-45491400D03*
X59080400Y-44221400D03*
X59080400Y-42951400D03*
X59080400Y-41681400D03*
D56*
X59067900Y-39793900D03*
X69748400Y-39793900D03*
D57*
X69748400Y-41681400D03*
X69748400Y-42951400D03*
X69748400Y-44221400D03*
X69748400Y-45491400D03*
X69748400Y-46761400D03*
X69748400Y-48031400D03*
X69748400Y-49301400D03*
X69748400Y-50571400D03*
D56*
X69735900Y-52458900D03*
%TD*%
D49*
%TO.C,R30*%
X61341000Y-62992000D03*
X59055000Y-62992000D03*
%TD*%
D51*
%TO.C,C55*%
X207975200Y-71958200D03*
X210108800Y-71958200D03*
%TD*%
%TO.C,C42*%
X201980800Y-61595000D03*
X204114400Y-61595000D03*
%TD*%
D50*
%TO.C,C87*%
X213868000Y-103962200D03*
X211734400Y-103962200D03*
%TD*%
D11*
%TO.C,TP161*%
X238277400Y-97053400D03*
%TD*%
D49*
%TO.C,R64*%
X221335600Y-93827600D03*
X219049600Y-93827600D03*
%TD*%
D50*
%TO.C,C68*%
X113538000Y-75920600D03*
X111404400Y-75920600D03*
%TD*%
D11*
%TO.C,TP174*%
X240817400Y-100888800D03*
%TD*%
D51*
%TO.C,C64*%
X210972400Y-77698600D03*
X213106000Y-77698600D03*
%TD*%
D49*
%TO.C,R78*%
X63957200Y-101447600D03*
X61671200Y-101447600D03*
%TD*%
%TO.C,R70*%
X214604600Y-97053400D03*
X212318600Y-97053400D03*
%TD*%
D50*
%TO.C,C98*%
X141046200Y-115468400D03*
X138912600Y-115468400D03*
%TD*%
D51*
%TO.C,C72*%
X60071000Y-80213200D03*
X62204600Y-80213200D03*
%TD*%
D50*
%TO.C,C80*%
X87630000Y-82169000D03*
X85496400Y-82169000D03*
%TD*%
%TO.C,C40*%
X46405800Y-43942000D03*
X44272200Y-43942000D03*
%TD*%
D55*
%TO.C,L10*%
X122453400Y-102438200D03*
X127025400Y-102438200D03*
%TD*%
D49*
%TO.C,R68*%
X35407600Y-94513400D03*
X33121600Y-94513400D03*
%TD*%
D11*
%TO.C,TP91*%
X58420000Y-77597000D03*
%TD*%
D53*
%TO.C,R53*%
X219049600Y-89865200D03*
X221335600Y-89865200D03*
%TD*%
D50*
%TO.C,C90*%
X118465600Y-102717600D03*
X116332000Y-102717600D03*
%TD*%
D53*
%TO.C,C112*%
X178816000Y-116738400D03*
X181102000Y-116738400D03*
%TD*%
D49*
%TO.C,R47*%
X202641200Y-84658200D03*
X200355200Y-84658200D03*
%TD*%
D53*
%TO.C,R39*%
X187172600Y-74091800D03*
X189458600Y-74091800D03*
%TD*%
D11*
%TO.C,TP152*%
X238277400Y-91897200D03*
%TD*%
%TO.C,TP172*%
X238302800Y-99593400D03*
%TD*%
D53*
%TO.C,R45*%
X98247200Y-79857600D03*
X100533200Y-79857600D03*
%TD*%
D51*
%TO.C,C86*%
X33197800Y-97663000D03*
X35331400Y-97663000D03*
%TD*%
D11*
%TO.C,TP139*%
X54305200Y-89992200D03*
%TD*%
D50*
%TO.C,C85*%
X69723000Y-95275400D03*
X67589400Y-95275400D03*
%TD*%
D49*
%TO.C,R88*%
X230022400Y-126111000D03*
X227736400Y-126111000D03*
%TD*%
D51*
%TO.C,C17*%
X233705400Y-42011600D03*
X235839000Y-42011600D03*
%TD*%
D50*
%TO.C,C52*%
X61264800Y-69342000D03*
X59131200Y-69342000D03*
%TD*%
D49*
%TO.C,R82*%
X58750200Y-108864400D03*
X56464200Y-108864400D03*
%TD*%
D53*
%TO.C,R90*%
X220421200Y-138404600D03*
X222707200Y-138404600D03*
%TD*%
D49*
%TO.C,R26*%
X214147400Y-63144400D03*
X211861400Y-63144400D03*
%TD*%
D11*
%TO.C,TP15*%
X72136000Y-41656000D03*
%TD*%
D49*
%TO.C,R46*%
X51892200Y-80162400D03*
X49606200Y-80162400D03*
%TD*%
D53*
%TO.C,R69*%
X219049600Y-96850200D03*
X221335600Y-96850200D03*
%TD*%
D50*
%TO.C,C101*%
X34340800Y-112268000D03*
X32207200Y-112268000D03*
%TD*%
D53*
%TO.C,R83*%
X94615000Y-110693200D03*
X96901000Y-110693200D03*
%TD*%
D49*
%TO.C,R84*%
X88366600Y-111633000D03*
X86080600Y-111633000D03*
%TD*%
D50*
%TO.C,C107*%
X45796200Y-123748800D03*
X43662600Y-123748800D03*
%TD*%
D51*
%TO.C,C39*%
X66370200Y-56261000D03*
X68503800Y-56261000D03*
%TD*%
D11*
%TO.C,TP72*%
X171754800Y-51181000D03*
%TD*%
D51*
%TO.C,C30*%
X198450200Y-47320200D03*
X200583800Y-47320200D03*
%TD*%
%TO.C,C35*%
X181635400Y-53746400D03*
X183769000Y-53746400D03*
%TD*%
D50*
%TO.C,C51*%
X87680800Y-67106800D03*
X85547200Y-67106800D03*
%TD*%
D53*
%TO.C,R44*%
X181102000Y-80772000D03*
X183388000Y-80772000D03*
%TD*%
D49*
%TO.C,R2*%
X210743800Y-43586400D03*
X208457800Y-43586400D03*
%TD*%
D51*
%TO.C,C94*%
X49504600Y-102666800D03*
X51638200Y-102666800D03*
%TD*%
D53*
%TO.C,R74*%
X49276000Y-96418400D03*
X51562000Y-96418400D03*
%TD*%
D11*
%TO.C,TP135*%
X146431000Y-86817200D03*
%TD*%
%TO.C,TP158*%
X238277400Y-94437200D03*
%TD*%
D50*
%TO.C,C113*%
X117856000Y-135178800D03*
X115722400Y-135178800D03*
%TD*%
D11*
%TO.C,TP38*%
X42291000Y-57658000D03*
%TD*%
D51*
%TO.C,C81*%
X186867800Y-97891600D03*
X189001400Y-97891600D03*
%TD*%
D53*
%TO.C,R23*%
X46482000Y-50419000D03*
X48768000Y-50419000D03*
%TD*%
D49*
%TO.C,R65*%
X214604600Y-93827600D03*
X212318600Y-93827600D03*
%TD*%
D53*
%TO.C,R52*%
X68554600Y-86410800D03*
X70840600Y-86410800D03*
%TD*%
D49*
%TO.C,R62*%
X51765200Y-89839800D03*
X49479200Y-89839800D03*
%TD*%
D11*
%TO.C,TP181*%
X238277400Y-104698800D03*
%TD*%
D53*
%TO.C,C111*%
X184734200Y-140639800D03*
X187020200Y-140639800D03*
%TD*%
D49*
%TO.C,R54*%
X214604600Y-90652600D03*
X212318600Y-90652600D03*
%TD*%
D50*
%TO.C,C19*%
X178562000Y-39725600D03*
X176428400Y-39725600D03*
%TD*%
D53*
%TO.C,R86*%
X80365600Y-117373400D03*
X82651600Y-117373400D03*
%TD*%
D50*
%TO.C,C92*%
X100431600Y-101396800D03*
X98298000Y-101396800D03*
%TD*%
D56*
%TO.C,RC1*%
X74358300Y-52458900D03*
D57*
X74345800Y-50571400D03*
X74345800Y-49301400D03*
X74345800Y-48031400D03*
X74345800Y-46761400D03*
X74345800Y-45491400D03*
X74345800Y-44221400D03*
X74345800Y-42951400D03*
X74345800Y-41681400D03*
D56*
X74333300Y-39793900D03*
X85013800Y-39793900D03*
D57*
X85013800Y-41681400D03*
X85013800Y-42951400D03*
X85013800Y-44221400D03*
X85013800Y-45491400D03*
X85013800Y-46761400D03*
X85013800Y-48031400D03*
X85013800Y-49301400D03*
X85013800Y-50571400D03*
D56*
X85001300Y-52458900D03*
%TD*%
D11*
%TO.C,TP163*%
X53644800Y-99568000D03*
%TD*%
D53*
%TO.C,R37*%
X42646600Y-68757800D03*
X44932600Y-68757800D03*
%TD*%
%TO.C,R48*%
X186944000Y-84201000D03*
X189230000Y-84201000D03*
%TD*%
%TO.C,R67*%
X40767000Y-94183200D03*
X43053000Y-94183200D03*
%TD*%
D49*
%TO.C,R9*%
X205917800Y-54102000D03*
X203631800Y-54102000D03*
%TD*%
%TO.C,R12*%
X159131000Y-53848000D03*
X156845000Y-53848000D03*
%TD*%
D53*
%TO.C,R24*%
X66421000Y-60096400D03*
X68707000Y-60096400D03*
%TD*%
D51*
%TO.C,C99*%
X86563200Y-117373400D03*
X88696800Y-117373400D03*
%TD*%
%TO.C,C62*%
X42748200Y-72009000D03*
X44881800Y-72009000D03*
%TD*%
D50*
%TO.C,C78*%
X196799200Y-90652600D03*
X194665600Y-90652600D03*
%TD*%
D49*
%TO.C,R66*%
X79619500Y-94107000D03*
X77333500Y-94107000D03*
%TD*%
D11*
%TO.C,TP45*%
X40055800Y-62687200D03*
%TD*%
D50*
%TO.C,C100*%
X76327000Y-117373400D03*
X74193400Y-117373400D03*
%TD*%
D49*
%TO.C,R96*%
X196392800Y-119583200D03*
X194106800Y-119583200D03*
%TD*%
D51*
%TO.C,C38*%
X83388200Y-57023000D03*
X85521800Y-57023000D03*
%TD*%
D50*
%TO.C,C54*%
X44881800Y-65024000D03*
X42748200Y-65024000D03*
%TD*%
D49*
%TO.C,R28*%
X228854000Y-66421000D03*
X226568000Y-66421000D03*
%TD*%
D50*
%TO.C,C114*%
X47040800Y-135178800D03*
X44907200Y-135178800D03*
%TD*%
D49*
%TO.C,R32*%
X51892200Y-65811400D03*
X49606200Y-65811400D03*
%TD*%
D51*
%TO.C,C49*%
X190373000Y-67411600D03*
X192506600Y-67411600D03*
%TD*%
D49*
%TO.C,R71*%
X78867000Y-98323400D03*
X76581000Y-98323400D03*
%TD*%
%TO.C,R22*%
X61341000Y-56642000D03*
X59055000Y-56642000D03*
%TD*%
D51*
%TO.C,C82*%
X177774600Y-98094800D03*
X179908200Y-98094800D03*
%TD*%
%TO.C,C63*%
X219049600Y-77622400D03*
X221183200Y-77622400D03*
%TD*%
D50*
%TO.C,C20*%
X171551600Y-39471600D03*
X169418000Y-39471600D03*
%TD*%
D11*
%TO.C,TP17*%
X56083200Y-46101000D03*
%TD*%
%TO.C,TP14*%
X56134000Y-43611800D03*
%TD*%
D49*
%TO.C,R6*%
X210769200Y-51358800D03*
X208483200Y-51358800D03*
%TD*%
D50*
%TO.C,C53*%
X51816000Y-69037200D03*
X49682400Y-69037200D03*
%TD*%
D51*
%TO.C,C57*%
X152882600Y-71577200D03*
X155016200Y-71577200D03*
%TD*%
D49*
%TO.C,R76*%
X139725400Y-102768400D03*
X137439400Y-102768400D03*
%TD*%
D51*
%TO.C,C70*%
X186639200Y-81000600D03*
X188772800Y-81000600D03*
%TD*%
D49*
%TO.C,R56*%
X43967400Y-87782400D03*
X41681400Y-87782400D03*
%TD*%
D11*
%TO.C,TP46*%
X63881000Y-60452000D03*
%TD*%
%TO.C,TP162*%
X30505400Y-99542600D03*
%TD*%
D50*
%TO.C,C32*%
X53898800Y-47498000D03*
X51765200Y-47498000D03*
%TD*%
D53*
%TO.C,R72*%
X67310000Y-98298000D03*
X69596000Y-98298000D03*
%TD*%
D49*
%TO.C,R58*%
X79832200Y-90474800D03*
X77546200Y-90474800D03*
%TD*%
D51*
%TO.C,C24*%
X176428400Y-43561000D03*
X178562000Y-43561000D03*
%TD*%
D49*
%TO.C,R42*%
X61468000Y-75692000D03*
X59182000Y-75692000D03*
%TD*%
D50*
%TO.C,C88*%
X201752200Y-101574600D03*
X199618600Y-101574600D03*
%TD*%
D58*
%TO.C,C76*%
X142982300Y-85902800D03*
X138297300Y-85902800D03*
%TD*%
D50*
%TO.C,C34*%
X191312800Y-54356000D03*
X189179200Y-54356000D03*
%TD*%
%TO.C,C1*%
X165176200Y-47472600D03*
X163042600Y-47472600D03*
%TD*%
D53*
%TO.C,R59*%
X67310000Y-92075000D03*
X69596000Y-92075000D03*
%TD*%
D51*
%TO.C,C47*%
X211455000Y-68376800D03*
X213588600Y-68376800D03*
%TD*%
D53*
%TO.C,R94*%
X86131400Y-135280400D03*
X88417400Y-135280400D03*
%TD*%
D49*
%TO.C,R7*%
X223520000Y-54381400D03*
X221234000Y-54381400D03*
%TD*%
D54*
%TO.C,C36*%
X145536300Y-53644800D03*
X150221300Y-53644800D03*
%TD*%
D49*
%TO.C,R34*%
X186969400Y-67081400D03*
X184683400Y-67081400D03*
%TD*%
D51*
%TO.C,C26*%
X160502600Y-40055800D03*
X162636200Y-40055800D03*
%TD*%
D49*
%TO.C,R95*%
X65963800Y-135178800D03*
X63677800Y-135178800D03*
%TD*%
D59*
%TO.C,C97*%
X146646900Y-107289600D03*
X143471900Y-107289600D03*
%TD*%
D53*
%TO.C,R63*%
X33121600Y-89941400D03*
X35407600Y-89941400D03*
%TD*%
D50*
%TO.C,C41*%
X46405800Y-56388000D03*
X44272200Y-56388000D03*
%TD*%
D53*
%TO.C,R10*%
X175742600Y-53746400D03*
X178028600Y-53746400D03*
%TD*%
D49*
%TO.C,R16*%
X216458800Y-58191400D03*
X214172800Y-58191400D03*
%TD*%
D59*
%TO.C,C61*%
X59982100Y-72517000D03*
X56807100Y-72517000D03*
%TD*%
D50*
%TO.C,C31*%
X185013600Y-47091600D03*
X182880000Y-47091600D03*
%TD*%
D53*
%TO.C,R85*%
X91846400Y-117373400D03*
X94132400Y-117373400D03*
%TD*%
%TO.C,R3*%
X188442600Y-43561000D03*
X190728600Y-43561000D03*
%TD*%
D11*
%TO.C,TP157*%
X240792000Y-93116400D03*
%TD*%
D50*
%TO.C,C102*%
X113842800Y-121031000D03*
X111709200Y-121031000D03*
%TD*%
D11*
%TO.C,TP175*%
X238277400Y-102158800D03*
%TD*%
D51*
%TO.C,C28*%
X90246200Y-43434000D03*
X92379800Y-43434000D03*
%TD*%
D53*
%TO.C,R1*%
X188442600Y-39725600D03*
X190728600Y-39725600D03*
%TD*%
D49*
%TO.C,R41*%
X226339400Y-77952600D03*
X224053400Y-77952600D03*
%TD*%
D54*
%TO.C,C48*%
X200552700Y-68427600D03*
X205237700Y-68427600D03*
%TD*%
D49*
%TO.C,R43*%
X221716600Y-80822800D03*
X219430600Y-80822800D03*
%TD*%
D11*
%TO.C,TP230*%
X240817400Y-85521800D03*
%TD*%
D55*
%TO.C,L9*%
X85623400Y-75311000D03*
X90195400Y-75311000D03*
%TD*%
D53*
%TO.C,R57*%
X200787000Y-91719400D03*
X203073000Y-91719400D03*
%TD*%
%TO.C,R11*%
X169316400Y-53746400D03*
X171602400Y-53746400D03*
%TD*%
%TO.C,R40*%
X49606200Y-72212200D03*
X51892200Y-72212200D03*
%TD*%
%TO.C,R36*%
X190296800Y-70307200D03*
X192582800Y-70307200D03*
%TD*%
D51*
%TO.C,C115*%
X50751309Y-39317438D03*
X52884909Y-39317438D03*
%TD*%
%TO.C,C105*%
X32207200Y-115468400D03*
X34340800Y-115468400D03*
%TD*%
M02*
