M48
; DRILL file {KiCad 9.0.7} date 2026-06-07T17:23:55+0500
; FORMAT={-:-/ absolute / metric / decimal}
; #@! TF.CreationDate,2026-06-07T17:23:55+05:00
; #@! TF.GenerationSoftware,Kicad,Pcbnew,9.0.7
; #@! TF.FileFunction,Plated,1,4,PTH
FMAT,2
METRIC
; #@! TA.AperFunction,Plated,PTH,ViaDrill
T1C0.432
; #@! TA.AperFunction,Plated,PTH,ComponentDrill
T2C0.432
; #@! TA.AperFunction,Plated,PTH,ComponentDrill
T3C0.500
; #@! TA.AperFunction,Plated,PTH,ComponentDrill
T4C0.800
; #@! TA.AperFunction,Plated,PTH,ComponentDrill
T5C0.889
; #@! TA.AperFunction,Plated,PTH,ComponentDrill
T6C0.890
; #@! TA.AperFunction,Plated,PTH,ComponentDrill
T7C0.965
; #@! TA.AperFunction,Plated,PTH,ComponentDrill
T8C1.000
; #@! TA.AperFunction,Plated,PTH,ComponentDrill
T9C1.020
; #@! TA.AperFunction,Plated,PTH,ComponentDrill
T10C1.067
; #@! TA.AperFunction,Plated,PTH,ComponentDrill
T11C1.200
; #@! TA.AperFunction,Plated,PTH,ComponentDrill
T12C1.260
; #@! TA.AperFunction,Plated,PTH,ComponentDrill
T13C1.600
; #@! TA.AperFunction,Plated,PTH,ComponentDrill
T14C1.700
; #@! TA.AperFunction,Plated,PTH,ComponentDrill
T15C3.175
; #@! TA.AperFunction,Plated,PTH,ComponentDrill
T16C3.200
%
G90
G05
T1
X29.286Y-39.319
X29.286Y-43.358
X30.759Y-102.997
X30.937Y-35.966
X30.963Y-100.99
X31.852Y-104.242
X31.928Y-102.083
X31.979Y-100.0
X31.979Y-110.795
X32.106Y-116.738
X33.172Y-88.316
X33.172Y-98.933
X34.188Y-109.042
X35.154Y-106.477
X35.408Y-108.077
X36.297Y-109.22
X36.525Y-106.832
X36.601Y-53.823
X36.805Y-86.487
X36.805Y-110.998
X36.881Y-91.364
X36.881Y-112.598
X37.008Y-80.188
X37.008Y-81.788
X37.008Y-83.388
X37.008Y-84.912
X37.008Y-115.57
X37.059Y-95.174
X37.135Y-114.122
X37.211Y-93.65
X37.236Y-97.714
X37.516Y-35.636
X37.846Y-90.272
X37.897Y-92.38
X37.897Y-96.368
X38.608Y-109.093
X38.633Y-43.307
X39.091Y-67.107
X39.878Y-80.493
X39.878Y-97.714
X40.081Y-92.177
X40.208Y-85.547
X40.208Y-115.265
X40.386Y-135.128
X40.411Y-126.213
X41.046Y-67.361
X41.046Y-69.037
X41.275Y-64.999
X41.351Y-63.602
X41.808Y-89.332
X41.808Y-120.625
X41.859Y-48.946
X42.189Y-106.426
X42.57Y-99.263
X42.697Y-70.942
X42.723Y-44.145
X42.723Y-46.914
X42.926Y-33.731
X42.951Y-118.516
X43.155Y-66.98
X43.536Y-122.352
X43.586Y-148.158
X43.612Y-126.289
X43.967Y-106.528
X44.298Y-117.297
X44.679Y-61.062
X44.882Y-89.662
X44.882Y-100.203
X44.882Y-110.058
X44.882Y-111.506
X45.009Y-133.553
X45.06Y-94.894
X45.263Y-93.066
X45.364Y-51.994
X45.441Y-66.675
X45.441Y-83.414
X45.517Y-81.585
X45.517Y-114.173
X45.644Y-57.963
X45.644Y-112.7
X45.872Y-103.48
X45.898Y-45.263
X46.05Y-131.013
X46.076Y-54.864
X46.152Y-126.543
X46.279Y-105.181
X46.507Y-72.085
X46.584Y-70.637
X46.66Y-92.177
X46.761Y-58.877
X46.761Y-62.713
X46.761Y-63.957
X46.965Y-97.333
X46.965Y-119.228
X47.269Y-100.178
X47.295Y-89.56
X47.295Y-133.553
X47.346Y-86.36
X47.371Y-66.167
X47.396Y-78.257
X47.396Y-98.73
X47.422Y-116.789
X47.447Y-107.569
X47.498Y-131.648
X47.549Y-115.037
X47.701Y-94.056
X47.727Y-123.698
X47.752Y-126.695
X47.854Y-120.625
X48.031Y-101.752
X48.158Y-103.657
X48.285Y-39.345
X48.311Y-72.238
X48.641Y-54.407
X48.92Y-113.919
X48.971Y-32.156
X49.225Y-52.705
X49.479Y-101.524
X49.555Y-123.546
X49.708Y-67.716
X49.708Y-92.405
X50.063Y-47.523
X50.267Y-40.97
X50.521Y-56.617
X50.724Y-78.257
X50.978Y-61.062
X51.029Y-144.374
X51.079Y-121.768
X51.664Y-101.549
X51.791Y-108.839
X51.791Y-110.541
X51.816Y-117.983
X51.867Y-82.398
X51.918Y-87.325
X52.248Y-105.588
X52.553Y-107.112
X52.654Y-143.662
X52.73Y-51.156
X53.061Y-83.312
X53.365Y-60.782
X53.365Y-71.653
X53.569Y-73.736
X54.0Y-49.301
X54.0Y-103.2
X54.331Y-75.082
X54.585Y-50.698
X54.661Y-80.162
X54.839Y-39.675
X54.915Y-72.542
X54.94Y-108.763
X55.143Y-88.341
X55.22Y-83.972
X55.347Y-93.624
X55.347Y-98.73
X55.397Y-117.983
X55.448Y-100.432
X55.474Y-49.047
X55.601Y-63.627
X55.601Y-70.739
X55.626Y-124.206
X55.651Y-105.308
X55.804Y-113.767
X56.007Y-58.039
X56.109Y-56.464
X56.185Y-69.418
X56.236Y-51.232
X56.236Y-133.883
X56.337Y-47.65
X56.363Y-121.768
X56.515Y-125.349
X56.871Y-67.742
X56.947Y-49.073
X57.074Y-63.017
X57.074Y-111.684
X57.099Y-44.856
X57.201Y-52.426
X57.455Y-60.096
X57.506Y-57.556
X57.531Y-75.717
X57.785Y-69.469
X57.785Y-92.024
X57.836Y-61.62
X58.014Y-93.624
X58.166Y-121.742
X58.166Y-125.4
X58.649Y-111.633
X59.157Y-91.491
X59.461Y-54.458
X59.563Y-145.491
X59.665Y-94.056
X59.715Y-37.236
X59.741Y-123.368
X59.919Y-84.912
X60.046Y-113.462
X60.427Y-105.842
X60.427Y-110.338
X60.503Y-122.098
X60.554Y-107.569
X60.681Y-96.368
X60.858Y-39.802
X60.935Y-45.39
X60.96Y-86.335
X61.163Y-146.914
X61.189Y-52.121
X61.417Y-48.87
X61.874Y-43.485
X61.951Y-91.897
X62.078Y-72.161
X62.281Y-84.074
X62.89Y-63.017
X62.916Y-48.997
X63.068Y-56.617
X63.221Y-69.342
X63.271Y-85.928
X63.424Y-72.796
X63.551Y-137.033
X63.805Y-58.141
X63.856Y-43.129
X64.237Y-45.415
X64.491Y-99.543
X64.491Y-110.973
X64.541Y-105.486
X64.821Y-103.327
X64.846Y-125.12
X64.872Y-56.21
X64.872Y-98.019
X65.126Y-54.712
X65.202Y-80.366
X65.405Y-121.463
X65.634Y-45.085
X65.71Y-101.803
X65.761Y-92.862
X65.786Y-91.338
X65.786Y-104.623
X65.913Y-95.225
X65.964Y-99.822
X65.989Y-79.096
X66.065Y-66.167
X66.091Y-96.952
X66.116Y-137.058
X66.142Y-61.824
X66.167Y-123.673
X66.218Y-110.287
X66.396Y-50.8
X66.421Y-57.912
X66.599Y-130.353
X66.98Y-122.352
X67.031Y-93.624
X67.056Y-84.912
X67.056Y-86.512
X67.056Y-106.477
X67.183Y-109.118
X67.386Y-111.277
X67.386Y-112.903
X67.437Y-115.646
X67.539Y-42.672
X67.589Y-135.153
X67.767Y-62.001
X67.843Y-39.802
X67.843Y-124.511
X67.869Y-49.327
X68.224Y-81.661
X68.656Y-57.531
X68.656Y-122.352
X69.317Y-88.443
X69.571Y-132.512
X69.621Y-143.383
X69.698Y-81.991
X70.561Y-61.417
X70.587Y-54.077
X70.764Y-77.953
X71.171Y-56.921
X71.171Y-73.228
X71.222Y-88.087
X71.349Y-96.85
X71.476Y-104.318
X71.526Y-98.577
X71.552Y-91.897
X71.552Y-100.457
X71.552Y-107.163
X71.552Y-112.065
X71.603Y-95.275
X71.628Y-93.624
X71.679Y-110.211
X71.806Y-45.136
X71.831Y-43.256
X71.882Y-113.69
X71.958Y-50.292
X72.085Y-69.342
X72.136Y-54.28
X72.212Y-130.658
X72.365Y-48.92
X72.517Y-39.268
X72.517Y-103.276
X72.517Y-143.713
X72.568Y-108.179
X72.593Y-105.385
X72.771Y-60.782
X72.847Y-71.831
X72.898Y-90.627
X72.974Y-92.227
X73.101Y-78.003
X73.101Y-81.229
X73.152Y-95.098
X73.152Y-134.823
X73.66Y-88.722
X73.787Y-97.638
X73.939Y-144.678
X73.965Y-54.331
X73.99Y-64.821
X74.092Y-106.274
X74.117Y-113.843
X74.244Y-115.418
X74.295Y-92.71
X74.32Y-69.977
X74.6Y-78.029
X74.905Y-131.597
X75.108Y-83.82
X75.133Y-121.107
X75.362Y-61.417
X75.463Y-114.351
X75.565Y-82.22
X75.692Y-71.882
X75.717Y-139.395
X75.819Y-92.608
X75.87Y-104.419
X75.946Y-119.685
X76.073Y-90.399
X76.403Y-43.307
X76.403Y-78.029
X76.479Y-45.212
X76.53Y-115.418
X76.581Y-39.421
X76.581Y-83.744
X76.606Y-145.72
X76.632Y-57.81
X76.937Y-50.902
X77.267Y-108.56
X77.572Y-54.712
X77.572Y-64.567
X77.648Y-49.632
X77.902Y-45.136
X77.902Y-81.305
X77.953Y-43.434
X78.029Y-57.099
X78.105Y-84.201
X78.105Y-115.443
X78.181Y-121.971
X78.232Y-101.727
X78.816Y-132.461
X78.842Y-95.936
X79.172Y-111.277
X79.223Y-146.812
X79.273Y-39.624
X79.375Y-49.073
X79.375Y-119.939
X79.477Y-83.642
X79.527Y-43.383
X79.553Y-45.187
X79.832Y-57.48
X80.112Y-76.048
X80.162Y-37.186
X80.416Y-63.322
X80.416Y-66.167
X80.416Y-107.036
X80.467Y-133.248
X80.467Y-143.713
X80.721Y-84.404
X80.721Y-101.422
X80.747Y-115.443
X80.975Y-54.915
X81.178Y-43.256
X81.216Y-78.626
X81.229Y-45.085
X81.229Y-94.031
X81.382Y-121.133
X81.382Y-135.153
X81.432Y-73.05
X81.661Y-90.653
X81.661Y-108.687
X81.864Y-39.548
X81.991Y-79.858
X82.296Y-97.942
X82.296Y-101.346
X82.321Y-115.138
X82.347Y-49.047
X82.575Y-119.863
X82.652Y-63.983
X82.753Y-43.256
X82.804Y-44.831
X82.906Y-59.182
X82.931Y-147.676
X82.956Y-125.933
X83.007Y-38.405
X83.058Y-89.789
X83.541Y-67.107
X83.566Y-69.113
X83.566Y-84.252
X83.693Y-64.999
X83.693Y-114.224
X83.795Y-75.362
X83.871Y-95.225
X83.998Y-82.144
X84.277Y-120.04
X84.379Y-115.519
X84.506Y-100.152
X84.582Y-58.547
X84.633Y-38.024
X84.633Y-111.633
X85.141Y-79.019
X85.141Y-83.769
X85.192Y-54.153
X85.217Y-88.621
X85.471Y-125.705
X85.547Y-144.983
X85.776Y-108.661
X85.877Y-115.316
X85.903Y-59.411
X86.411Y-65.329
X86.69Y-62.382
X86.741Y-79.019
X86.843Y-88.722
X86.868Y-84.201
X86.944Y-146.025
X86.944Y-147.625
X87.097Y-44.501
X87.681Y-109.525
X87.884Y-69.291
X87.884Y-72.542
X87.884Y-120.294
X87.986Y-106.985
X88.036Y-137.16
X88.062Y-54.991
X88.341Y-145.644
X88.392Y-89.865
X88.494Y-59.411
X88.57Y-48.438
X88.621Y-77.876
X88.951Y-53.772
X89.205Y-41.656
X89.205Y-107.798
X89.306Y-142.951
X89.383Y-82.169
X89.459Y-97.003
X89.459Y-119.99
X90.018Y-84.252
X90.094Y-111.582
X90.297Y-73.381
X90.399Y-53.797
X90.78Y-77.826
X90.856Y-88.494
X90.881Y-144.17
X91.135Y-41.402
X91.161Y-80.797
X91.288Y-106.604
X91.288Y-109.982
X91.288Y-139.421
X91.415Y-60.731
X91.465Y-48.336
X91.872Y-69.342
X91.923Y-115.545
X92.1Y-111.303
X92.177Y-73.431
X92.253Y-62.738
X92.304Y-46.888
X92.431Y-81.61
X92.558Y-53.797
X92.583Y-147.676
X92.989Y-59.665
X93.015Y-109.957
X93.066Y-42.189
X93.091Y-144.12
X94.005Y-60.833
X94.005Y-104.546
X94.031Y-65.481
X94.031Y-88.494
X94.209Y-115.519
X94.285Y-48.336
X94.336Y-76.429
X94.386Y-100.609
X94.59Y-94.717
X94.615Y-133.096
X94.793Y-120.269
X94.996Y-99.212
X95.021Y-96.164
X95.123Y-135.103
X95.25Y-90.018
X95.809Y-125.349
X95.987Y-62.687
X96.139Y-53.721
X96.19Y-59.411
X96.241Y-79.858
X96.317Y-147.599
X96.774Y-133.35
X96.901Y-75.667
X97.155Y-70.79
X97.206Y-60.731
X97.206Y-77.191
X97.282Y-64.872
X97.536Y-138.633
X97.612Y-63.424
X97.638Y-53.721
X97.866Y-51.867
X97.892Y-120.294
X98.069Y-100.152
X98.069Y-106.934
X98.095Y-98.577
X98.146Y-92.862
X98.146Y-94.437
X98.171Y-113.36
X98.171Y-131.369
X98.171Y-145.644
X98.476Y-96.063
X98.501Y-38.557
X98.882Y-57.937
X99.39Y-119.99
X99.466Y-136.931
X100.254Y-61.163
X100.381Y-64.567
X100.432Y-116.637
X100.965Y-81.636
X101.143Y-75.209
X101.168Y-76.657
X101.854Y-138.684
X102.667Y-97.968
X102.667Y-106.147
X102.692Y-52.172
X102.768Y-101.346
X102.921Y-103.988
X103.124Y-89.535
X103.124Y-109.271
X103.302Y-80.188
X103.327Y-131.648
X103.327Y-147.244
X103.454Y-136.906
X103.632Y-85.369
X103.988Y-96.418
X104.089Y-88.036
X104.267Y-100.863
X104.419Y-133.655
X104.521Y-98.806
X104.572Y-104.623
X104.623Y-126.416
X104.699Y-89.56
X105.181Y-124.435
X105.359Y-71.145
X105.41Y-74.143
X105.435Y-135.128
X105.486Y-109.347
X105.486Y-119.151
X105.613Y-77.724
X105.689Y-131.521
X105.842Y-62.408
X105.842Y-64.745
X105.842Y-96.698
X105.867Y-76.048
X106.172Y-89.586
X106.223Y-104.673
X106.248Y-117.399
X106.477Y-52.781
X106.477Y-81.712
X106.629Y-121.082
X106.68Y-73.127
X107.01Y-71.45
X107.467Y-135.179
X107.518Y-47.244
X107.569Y-64.44
X107.747Y-77.572
X108.229Y-99.492
X108.585Y-48.565
X108.991Y-112.903
X109.22Y-68.732
X109.347Y-121.006
X109.652Y-85.369
X109.88Y-93.294
X110.033Y-75.921
X110.109Y-48.616
X110.541Y-81.915
X110.846Y-68.656
X110.896Y-116.408
X111.15Y-60.096
X111.658Y-101.448
X112.37Y-47.092
X112.471Y-104.394
X112.801Y-93.497
X112.827Y-53.67
X112.878Y-135.128
X113.64Y-106.147
X113.767Y-50.902
X113.817Y-148.184
X113.97Y-109.017
X114.097Y-57.785
X114.452Y-135.153
X114.529Y-47.092
X115.418Y-75.921
X115.545Y-38.532
X115.621Y-85.598
X115.824Y-72.593
X116.002Y-121.133
X116.561Y-99.085
X116.662Y-62.027
X116.662Y-68.275
X117.272Y-38.633
X117.602Y-85.852
X117.78Y-58.014
X117.856Y-112.751
X117.907Y-82.017
X117.932Y-48.311
X118.72Y-103.759
X118.847Y-59.512
X119.151Y-53.899
X119.482Y-82.042
X119.634Y-135.153
X119.786Y-48.26
X120.117Y-112.268
X120.421Y-37.922
X120.421Y-98.273
X120.472Y-99.644
X120.625Y-102.489
X121.056Y-62.052
X121.361Y-40.767
X121.387Y-82.042
X121.463Y-48.717
X121.691Y-93.193
X122.098Y-99.771
X122.149Y-87.3
X122.225Y-126.568
X122.53Y-112.852
X122.758Y-49.2
X122.834Y-96.698
X122.86Y-64.414
X122.961Y-82.042
X123.012Y-148.488
X123.419Y-108.204
X123.495Y-71.526
X123.622Y-98.958
X123.927Y-68.783
X124.181Y-63.652
X124.231Y-49.276
X124.231Y-75.082
X124.257Y-37.262
X124.282Y-106.858
X124.282Y-136.373
X124.308Y-112.344
X124.511Y-120.193
X124.562Y-61.468
X125.4Y-58.623
X125.501Y-53.899
X125.501Y-60.173
X125.603Y-62.662
X125.755Y-72.873
X127.102Y-79.832
X127.102Y-84.582
X128.194Y-38.735
X128.549Y-51.994
X129.007Y-87.452
X129.159Y-80.239
X129.718Y-57.734
X130.124Y-148.742
X130.277Y-101.117
X130.607Y-107.163
X130.937Y-38.964
X131.572Y-68.732
X131.572Y-71.247
X131.699Y-120.498
X131.75Y-79.019
X131.801Y-142.596
X131.851Y-122.123
X131.851Y-129.87
X131.851Y-136.652
X131.902Y-123.749
X131.902Y-131.597
X131.902Y-140.665
X131.928Y-125.73
X131.928Y-145.644
X131.928Y-147.879
X131.978Y-127.33
X132.004Y-50.013
X132.182Y-85.217
X132.182Y-87.757
X132.512Y-98.958
X132.766Y-41.275
X134.112Y-84.277
X134.112Y-88.392
X134.29Y-68.402
X134.391Y-60.452
X134.595Y-64.44
X134.595Y-71.78
X135.052Y-70.383
X135.712Y-123.647
X135.712Y-128.295
X135.712Y-132.563
X135.712Y-141.884
X135.738Y-139.446
X135.788Y-144.12
X135.788Y-148.692
X135.865Y-102.692
X135.992Y-86.258
X136.55Y-57.734
X136.576Y-111.303
X136.576Y-115.164
X136.931Y-63.5
X137.363Y-123.114
X137.566Y-79.223
X137.871Y-124.485
X138.303Y-126.06
X138.836Y-76.048
X138.862Y-141.503
X139.04Y-47.727
X139.065Y-127.635
X139.7Y-72.034
X139.903Y-74.981
X140.386Y-87.808
X140.691Y-47.269
X140.792Y-101.092
X140.894Y-134.722
X141.021Y-70.942
X141.249Y-68.453
X141.249Y-114.275
X141.376Y-72.847
X141.605Y-107.29
X141.783Y-151.638
X141.884Y-122.834
X141.961Y-124.358
X141.961Y-125.984
X141.986Y-136.931
X142.062Y-76.556
X142.088Y-127.66
X142.621Y-59.258
X142.621Y-150.266
X143.154Y-115.646
X143.662Y-60.528
X143.662Y-70.942
X143.662Y-77.241
X144.78Y-93.523
X145.186Y-61.036
X145.186Y-77.419
X145.288Y-150.241
X145.567Y-85.598
X145.567Y-88.163
X145.72Y-120.574
X145.771Y-122.072
X145.821Y-116.154
X146.05Y-145.974
X146.05Y-147.574
X146.101Y-143.942
X146.177Y-129.946
X146.202Y-73.685
X146.304Y-141.072
X146.482Y-131.851
X146.558Y-139.014
X146.634Y-151.054
X146.685Y-133.579
X147.091Y-76.987
X147.218Y-102.794
X147.523Y-149.301
X147.549Y-67.97
X147.879Y-72.009
X147.955Y-53.746
X148.692Y-107.29
X148.996Y-60.782
X149.022Y-74.32
X149.047Y-153.086
X149.301Y-135.255
X149.936Y-128.422
X150.292Y-71.577
X150.317Y-133.579
X150.444Y-56.134
X150.597Y-74.905
X151.079Y-124.587
X151.079Y-127.279
X151.359Y-60.122
X151.562Y-67.132
X152.07Y-107.366
X152.654Y-114.224
X152.654Y-125.552
X152.654Y-131.496
X152.806Y-51.105
X153.213Y-102.768
X153.264Y-88.163
X153.772Y-115.748
X153.797Y-146.939
X154.508Y-128.422
X154.508Y-132.258
X155.372Y-74.778
X155.423Y-55.651
X155.702Y-70.282
X155.702Y-76.657
X155.727Y-88.722
X156.058Y-47.981
X156.21Y-103.53
X156.312Y-80.239
X156.312Y-96.469
X156.718Y-37.846
X157.201Y-57.175
X157.328Y-51.537
X158.445Y-96.469
X159.207Y-48.387
X159.258Y-110.617
X159.258Y-112.192
X159.664Y-57.988
X160.35Y-103.073
X160.401Y-109.398
X160.426Y-98.45
X160.553Y-147.574
X160.757Y-47.854
X160.757Y-53.772
X160.782Y-115.824
X160.782Y-119.939
X160.833Y-85.217
X160.985Y-43.612
X161.036Y-129.921
X161.442Y-76.683
X161.442Y-128.143
X161.468Y-65.202
X161.671Y-117.932
X161.9Y-86.538
X161.9Y-89.154
X162.077Y-50.978
X162.077Y-62.713
X162.281Y-67.666
X162.281Y-147.752
X162.331Y-149.784
X162.687Y-114.427
X162.789Y-64.364
X162.814Y-69.012
X162.839Y-85.166
X162.839Y-142.392
X163.347Y-102.083
X163.551Y-144.45
X163.652Y-66.802
X163.678Y-94.844
X163.728Y-50.902
X164.313Y-45.187
X164.795Y-65.71
X164.795Y-68.097
X165.608Y-143.154
X165.684Y-84.582
X166.37Y-98.222
X166.421Y-45.364
X166.624Y-135.915
X166.675Y-151.054
X166.827Y-66.015
X166.827Y-123.774
X166.903Y-41.224
X167.284Y-95.072
X167.335Y-79.375
X167.488Y-132.867
X167.792Y-55.118
X168.148Y-152.146
X168.427Y-46.279
X168.631Y-123.444
X168.758Y-78.283
X168.834Y-93.269
X168.91Y-94.742
X169.469Y-44.882
X169.57Y-137.287
X170.053Y-70.333
X170.053Y-92.405
X170.104Y-99.644
X170.358Y-41.123
X170.612Y-46.152
X170.637Y-80.975
X170.637Y-148.438
X170.764Y-86.766
X171.145Y-114.325
X171.374Y-95.936
X171.552Y-88.316
X171.552Y-139.725
X171.856Y-41.097
X171.907Y-151.663
X171.983Y-64.262
X172.187Y-82.321
X172.187Y-85.674
X172.745Y-141.427
X172.949Y-98.628
X173.05Y-116.992
X173.152Y-94.158
X173.431Y-86.69
X173.431Y-120.828
X173.507Y-41.046
X173.914Y-66.472
X174.041Y-96.723
X174.066Y-45.161
X174.396Y-143.485
X174.727Y-72.822
X174.752Y-87.884
X174.93Y-94.285
X175.031Y-47.955
X175.209Y-128.422
X175.235Y-41.148
X175.235Y-82.601
X175.235Y-97.434
X175.26Y-123.571
X175.514Y-116.129
X175.565Y-100.432
X175.717Y-140.589
X176.174Y-93.091
X176.403Y-112.065
X176.428Y-38.583
X176.428Y-98.501
X176.784Y-128.219
X176.911Y-51.079
X176.962Y-88.316
X177.063Y-104.165
X177.241Y-79.197
X177.292Y-116.688
X177.571Y-46.711
X177.597Y-67.081
X177.597Y-82.169
X177.597Y-121.209
X177.902Y-100.406
X178.181Y-93.167
X178.435Y-120.015
X178.892Y-81.331
X179.095Y-84.201
X179.172Y-70.587
X179.197Y-91.11
X179.273Y-138.811
X179.451Y-79.781
X179.476Y-55.067
X180.035Y-82.982
X180.137Y-51.841
X180.238Y-136.347
X180.442Y-38.684
X180.467Y-100.406
X180.594Y-119.507
X180.696Y-42.672
X180.772Y-57.582
X181.102Y-75.057
X181.305Y-97.815
X181.94Y-134.874
X182.042Y-55.905
X182.093Y-63.983
X182.499Y-98.704
X182.524Y-137.897
X182.626Y-70.485
X182.651Y-116.688
X182.702Y-67.107
X182.702Y-75.844
X182.804Y-37.897
X182.804Y-41.834
X182.804Y-48.438
X183.083Y-122.809
X183.236Y-140.614
X183.413Y-134.62
X183.642Y-77.953
X183.82Y-129.184
X184.099Y-89.535
X184.633Y-78.943
X184.658Y-143.789
X184.709Y-68.58
X184.76Y-122.555
X185.064Y-80.442
X185.064Y-84.023
X185.166Y-36.982
X185.191Y-85.903
X185.217Y-54.102
X185.242Y-76.505
X185.268Y-45.187
X185.293Y-42.494
X185.293Y-103.556
X185.318Y-88.671
X185.344Y-97.815
X186.512Y-47.422
X186.69Y-114.478
X186.817Y-41.529
X186.969Y-144.247
X187.02Y-52.172
X187.147Y-43.586
X187.147Y-45.491
X187.249Y-111.887
X187.401Y-54.407
X187.757Y-76.022
X187.96Y-113.208
X188.138Y-70.536
X188.417Y-52.807
X188.798Y-65.888
X189.052Y-140.589
X189.255Y-75.971
X189.255Y-79.629
X189.332Y-82.677
X189.814Y-92.227
X190.267Y-106.955
X190.449Y-66.269
X190.678Y-87.96
X190.906Y-90.297
X190.957Y-142.138
X191.008Y-84.912
X191.054Y-101.925
X191.262Y-97.841
X191.313Y-91.897
X191.414Y-73.0
X191.414Y-107.798
X191.44Y-83.312
X191.44Y-119.913
X191.897Y-128.016
X192.253Y-66.269
X192.456Y-84.633
X192.481Y-54.407
X192.507Y-47.93
X192.532Y-41.707
X192.532Y-112.37
X192.583Y-93.193
X192.608Y-60.731
X192.608Y-81.458
X192.634Y-99.39
X192.71Y-80.01
X192.71Y-90.856
X192.71Y-97.841
X192.811Y-83.007
X192.888Y-86.182
X192.913Y-122.479
X192.989Y-118.516
X193.37Y-56.642
X193.98Y-113.614
X194.158Y-60.706
X194.335Y-79.299
X194.793Y-67.412
X194.813Y-102.662
X194.996Y-112.319
X195.072Y-55.55
X195.097Y-150.038
X195.504Y-124.206
X195.555Y-114.656
X195.834Y-79.426
X196.266Y-59.842
X196.418Y-47.447
X196.444Y-100.711
X196.596Y-81.966
X196.596Y-83.515
X196.621Y-97.053
X196.723Y-98.933
X196.748Y-93.599
X196.825Y-85.877
X196.926Y-88.544
X196.952Y-70.333
X196.952Y-123.622
X197.129Y-115.722
X197.256Y-51.206
X197.282Y-140.411
X197.612Y-72.517
X197.714Y-59.944
X197.714Y-100.025
X197.815Y-101.676
X198.018Y-128.295
X198.095Y-83.439
X198.095Y-98.501
X198.12Y-119.482
X198.272Y-79.07
X198.298Y-97.053
X198.45Y-84.963
X198.933Y-106.172
X199.009Y-90.653
X199.034Y-92.685
X199.161Y-60.173
X199.288Y-62.789
X199.288Y-66.396
X199.288Y-81.305
X199.492Y-70.891
X199.517Y-49.987
X199.568Y-88.417
X199.619Y-139.649
X199.72Y-127.584
X200.025Y-86.69
X200.076Y-53.391
X200.127Y-56.007
X200.457Y-61.798
X200.584Y-79.807
X201.092Y-95.428
X201.117Y-141.427
X201.143Y-134.62
X201.219Y-72.796
X201.219Y-87.478
X201.219Y-88.976
X201.244Y-123.825
X201.651Y-99.593
X201.727Y-106.223
X201.752Y-53.442
X201.981Y-79.045
X202.006Y-119.456
X202.082Y-47.422
X202.082Y-96.545
X202.438Y-80.645
X202.616Y-64.694
X202.667Y-137.922
X202.692Y-70.612
X202.794Y-55.982
X203.251Y-94.158
X203.327Y-95.606
X203.632Y-135.763
X203.835Y-47.574
X204.267Y-65.837
X204.318Y-49.733
X204.47Y-100.813
X204.47Y-132.613
X204.648Y-140.538
X204.851Y-92.812
X204.851Y-94.59
X204.927Y-106.223
X204.953Y-137.338
X205.105Y-56.007
X205.156Y-91.389
X205.486Y-70.358
X205.486Y-84.887
X205.613Y-96.063
X205.867Y-50.241
X205.994Y-61.57
X206.248Y-81.255
X206.578Y-55.88
X206.807Y-65.862
X206.832Y-88.798
X206.883Y-95.123
X206.908Y-114.605
X207.289Y-112.395
X207.493Y-117.5
X207.493Y-149.987
X207.543Y-96.799
X207.594Y-48.895
X207.721Y-54.102
X207.823Y-98.577
X208.102Y-38.532
X208.128Y-106.172
X208.432Y-114.249
X208.559Y-49.987
X208.661Y-61.239
X208.712Y-45.161
X208.737Y-78.994
X208.864Y-81.509
X209.042Y-150.038
X209.067Y-142.443
X209.118Y-134.874
X209.347Y-65.811
X209.398Y-102.083
X209.398Y-118.72
X209.474Y-116.434
X209.855Y-99.517
X210.033Y-49.606
X210.058Y-85.369
X210.185Y-150.978
X210.261Y-138.303
X210.287Y-63.094
X210.287Y-100.914
X210.337Y-40.869
X210.668Y-55.474
X210.795Y-79.197
X210.82Y-66.548
X211.303Y-70.18
X211.328Y-106.172
X211.582Y-114.783
X211.658Y-148.819
X211.912Y-102.057
X211.938Y-49.124
X211.938Y-64.973
X211.963Y-60.046
X212.014Y-71.755
X212.115Y-122.098
X212.242Y-43.586
X212.496Y-135.687
X212.979Y-98.984
X213.004Y-54.381
X213.004Y-119.99
X213.233Y-65.811
X213.335Y-148.387
X213.563Y-60.427
X213.665Y-141.173
X213.792Y-136.601
X213.843Y-79.197
X213.995Y-49.606
X214.071Y-71.526
X214.503Y-102.108
X214.503Y-106.147
X214.757Y-45.11
X214.96Y-117.627
X215.113Y-123.749
X215.214Y-60.401
X215.494Y-132.842
X215.57Y-98.933
X215.748Y-115.265
X216.027Y-79.096
X216.103Y-62.941
X216.103Y-90.627
X216.103Y-93.828
X216.129Y-96.977
X216.23Y-66.091
X216.256Y-111.684
X216.408Y-134.036
X216.433Y-85.115
X216.586Y-120.371
X216.789Y-68.377
X216.789Y-113.995
X217.018Y-109.271
X217.018Y-117.272
X217.068Y-142.443
X217.272Y-92.735
X217.297Y-88.443
X217.322Y-97.968
X217.322Y-99.619
X217.424Y-95.961
X217.449Y-94.463
X217.576Y-91.338
X217.678Y-47.396
X217.678Y-80.772
X217.703Y-102.108
X218.008Y-51.765
X218.135Y-79.197
X218.288Y-83.134
X218.288Y-123.165
X218.338Y-105.893
X218.669Y-86.741
X218.694Y-132.309
X218.948Y-50.546
X218.973Y-60.401
X218.973Y-108.306
X218.999Y-65.507
X219.38Y-100.0
X219.583Y-53.772
X219.608Y-83.82
X219.634Y-78.816
X219.659Y-88.087
X219.659Y-98.552
X220.218Y-56.642
X220.218Y-61.366
X220.243Y-70.764
X220.802Y-66.802
X220.904Y-115.545
X221.666Y-71.476
X221.666Y-78.867
X221.92Y-117.323
X222.123Y-111.785
X223.368Y-84.303
X223.368Y-90.526
X223.52Y-94.107
X223.52Y-96.698
X223.571Y-86.868
X223.571Y-92.583
X223.647Y-88.621
X223.698Y-79.654
X223.723Y-108.585
X223.799Y-111.049
X224.028Y-99.339
X224.028Y-101.041
X224.206Y-144.348
X224.231Y-121.641
X224.638Y-60.731
X224.765Y-95.123
X224.79Y-97.409
X224.892Y-85.369
X225.171Y-108.204
X225.222Y-100.279
X225.273Y-111.912
X225.298Y-79.502
X225.374Y-116.815
X225.45Y-138.303
X225.501Y-91.465
X225.552Y-56.312
X225.603Y-93.878
X225.704Y-98.501
X225.781Y-89.941
X225.882Y-88.392
X225.908Y-68.377
X225.908Y-103.81
X226.212Y-126.06
X226.339Y-84.226
X226.339Y-86.411
X226.339Y-96.977
X226.466Y-105.181
X226.746Y-95.428
X226.771Y-92.405
X226.847Y-51.74
X226.873Y-81.737
X227.051Y-90.78
X227.127Y-118.821
X227.228Y-89.179
X227.609Y-84.988
X227.787Y-77.902
X227.813Y-105.766
X228.067Y-117.602
X228.397Y-50.902
X228.498Y-83.007
X228.752Y-48.362
X228.829Y-113.97
X229.997Y-55.296
X230.022Y-111.049
X230.48Y-113.741
X231.292Y-104.927
X231.292Y-106.502
X231.343Y-108.052
X231.623Y-145.339
X231.851Y-42.24
X233.426Y-44.196
X234.62Y-115.849
X234.721Y-32.182
X237.363Y-133.223
X237.541Y-37.49
X237.566Y-38.862
X237.592Y-42.266
X237.896Y-117.094
X237.973Y-118.72
X238.531Y-115.646
X238.912Y-112.979
X239.319Y-119.558
X239.344Y-117.932
X239.42Y-114.478
X240.157Y-71.857
X240.462Y-56.617
T2
X40.386Y-73.508
X40.386Y-74.778
X40.386Y-76.048
X40.386Y-77.318
X42.748Y-73.508
X42.748Y-74.778
X42.748Y-76.048
X42.748Y-77.318
X226.035Y-42.596
X226.035Y-44.196
X228.397Y-42.596
X228.397Y-44.196
T3
X30.836Y-75.387
X39.421Y-70.917
X41.021Y-60.198
X44.552Y-74.422
X50.521Y-51.537
X51.156Y-37.262
X53.061Y-77.597
X53.696Y-37.262
X54.026Y-86.487
X54.305Y-89.992
X56.566Y-37.262
X60.985Y-54.432
X61.316Y-78.257
X63.525Y-54.737
X64.516Y-37.897
X66.37Y-89.662
X67.081Y-37.897
X68.351Y-77.953
X68.961Y-67.437
X69.647Y-37.592
X72.238Y-37.567
X72.492Y-84.252
X75.362Y-37.567
X77.572Y-67.107
X78.207Y-37.516
X81.991Y-83.617
X86.411Y-120.167
X88.011Y-39.802
X91.161Y-45.847
X92.405Y-90.018
X92.431Y-78.257
X93.726Y-45.466
X96.241Y-78.257
X96.85Y-72.517
X97.536Y-48.666
X102.997Y-55.372
X103.302Y-95.072
X108.382Y-38.227
X116.611Y-95.098
X118.847Y-100.457
X128.067Y-111.608
X139.446Y-68.377
X139.852Y-122.072
X146.787Y-114.198
X148.996Y-111.938
X149.022Y-114.503
X149.022Y-116.992
X149.047Y-119.609
X149.047Y-122.098
X149.047Y-147.574
X150.292Y-51.156
X164.313Y-114.503
X164.313Y-116.992
X164.313Y-119.609
X164.338Y-111.938
X164.363Y-150.089
X164.541Y-83.388
X169.367Y-145.009
X169.418Y-111.938
X169.418Y-114.503
X169.418Y-116.992
X169.418Y-119.532
X169.418Y-122.123
X183.337Y-92.888
X184.633Y-147.549
X184.658Y-111.938
X184.658Y-114.478
X184.658Y-117.043
X184.658Y-119.532
X185.572Y-82.677
X185.877Y-92.888
X189.713Y-111.912
X189.713Y-119.558
X189.713Y-122.098
X189.738Y-114.452
X189.738Y-117.043
X191.643Y-89.027
X197.891Y-80.416
X199.212Y-99.517
X200.457Y-96.977
X201.727Y-65.837
X203.022Y-98.222
X204.927Y-111.938
X204.927Y-114.529
X204.927Y-117.043
X204.927Y-119.532
X204.953Y-144.983
X206.248Y-82.677
X206.832Y-93.472
X207.162Y-80.112
X208.102Y-55.982
X208.788Y-82.982
X210.033Y-132.385
X210.058Y-129.616
X210.058Y-139.878
X210.058Y-147.549
X210.083Y-80.442
X211.328Y-82.677
X212.623Y-80.467
X213.868Y-82.652
X215.163Y-80.442
X216.433Y-82.677
X218.338Y-68.377
X221.488Y-65.583
X223.723Y-71.907
X224.942Y-81.051
X225.298Y-124.638
X225.298Y-134.798
X225.323Y-142.443
X225.323Y-150.089
X238.227Y-84.277
X238.227Y-89.357
X238.252Y-79.172
X238.252Y-81.737
X238.252Y-86.817
X240.792Y-80.442
X240.792Y-82.982
X240.817Y-77.902
X240.817Y-88.113
X240.817Y-98.247
X240.843Y-90.653
T4
X110.922Y-107.163
X110.922Y-114.783
X126.162Y-107.163
X126.162Y-114.783
T5
X42.316Y-128.778
X42.316Y-141.478
X44.856Y-128.778
X44.856Y-141.478
X47.396Y-128.778
X47.396Y-141.478
X49.936Y-128.778
X49.936Y-141.478
X52.476Y-128.778
X52.476Y-141.478
X55.016Y-128.778
X55.016Y-141.478
X57.556Y-128.778
X57.556Y-141.478
X60.096Y-128.778
X60.096Y-141.478
X62.636Y-128.778
X62.636Y-141.478
X65.176Y-128.778
X65.176Y-141.478
X67.716Y-128.778
X67.716Y-141.478
X70.256Y-128.778
X70.256Y-141.478
X72.796Y-128.778
X72.796Y-141.478
X75.336Y-128.778
X75.336Y-141.478
X77.876Y-128.778
X77.876Y-141.478
X80.416Y-128.778
X80.416Y-141.478
X82.956Y-128.778
X82.956Y-141.478
X85.496Y-128.778
X85.496Y-141.478
X88.036Y-128.778
X88.036Y-141.478
X90.576Y-128.778
X90.576Y-141.478
X93.116Y-128.778
X93.116Y-141.478
X95.656Y-128.778
X95.656Y-141.478
X98.196Y-128.778
X98.196Y-141.478
X100.736Y-128.778
X100.736Y-141.478
X103.276Y-128.778
X103.276Y-141.478
X105.816Y-128.778
X105.816Y-141.478
X108.356Y-128.778
X108.356Y-141.478
X110.896Y-128.778
X110.896Y-141.478
X113.436Y-128.778
X113.436Y-141.478
X115.976Y-128.778
X115.976Y-141.478
T6
X54.389Y-32.791
X54.389Y-35.281
X56.439Y-32.791
X56.439Y-35.281
X58.549Y-35.281
X59.039Y-32.791
X61.089Y-32.791
X61.089Y-35.281
X73.49Y-32.791
X73.49Y-35.281
X75.54Y-32.791
X75.54Y-35.281
X77.65Y-35.281
X78.14Y-32.791
X80.19Y-32.791
X80.19Y-35.281
X207.315Y-32.791
X207.315Y-35.281
X214.015Y-32.791
X214.015Y-35.281
T7
X95.86Y-42.875
X95.86Y-45.415
X98.4Y-42.875
X98.4Y-45.415
X100.94Y-42.875
X100.94Y-45.415
X103.48Y-42.875
X103.48Y-45.415
X106.02Y-42.875
X106.02Y-45.415
X108.56Y-42.875
X108.56Y-45.415
X111.1Y-42.875
X111.1Y-45.415
X113.64Y-42.875
X113.64Y-45.415
X116.18Y-42.875
X116.18Y-45.415
X118.72Y-42.875
X118.72Y-45.415
X121.26Y-42.875
X121.26Y-45.415
X123.8Y-42.875
X123.8Y-45.415
X126.34Y-42.875
X126.34Y-45.415
X128.88Y-42.875
X128.88Y-45.415
X131.42Y-42.875
X131.42Y-45.415
X133.96Y-42.875
X133.96Y-45.415
X136.5Y-42.875
X136.5Y-45.415
X139.04Y-42.875
X139.04Y-45.415
X141.58Y-42.875
X141.58Y-45.415
X144.12Y-42.875
X144.12Y-45.415
X146.66Y-42.875
X146.66Y-45.415
X149.2Y-42.875
X149.2Y-45.415
X151.74Y-42.875
X151.74Y-45.415
X154.28Y-42.875
X154.28Y-45.415
X156.82Y-42.875
X156.82Y-45.415
X163.068Y-110.541
X163.068Y-110.541
X163.068Y-125.781
X163.068Y-125.781
X163.068Y-130.962
X163.068Y-130.962
X163.068Y-146.202
X163.068Y-146.202
X165.608Y-110.541
X165.608Y-110.541
X165.608Y-125.781
X165.608Y-125.781
X165.608Y-130.962
X165.608Y-130.962
X165.608Y-146.202
X165.608Y-146.202
X168.072Y-60.147
X168.072Y-62.687
X168.148Y-110.541
X168.148Y-110.541
X168.148Y-125.781
X168.148Y-125.781
X168.148Y-130.962
X168.148Y-130.962
X168.148Y-146.202
X168.148Y-146.202
X170.612Y-60.147
X170.612Y-62.687
X170.688Y-110.541
X170.688Y-110.541
X170.688Y-125.781
X170.688Y-125.781
X170.688Y-130.962
X170.688Y-130.962
X170.688Y-146.202
X170.688Y-146.202
X173.152Y-60.147
X173.152Y-62.687
X173.228Y-110.541
X173.228Y-110.541
X173.228Y-125.781
X173.228Y-125.781
X173.228Y-130.962
X173.228Y-130.962
X173.228Y-146.202
X173.228Y-146.202
X175.692Y-60.147
X175.692Y-62.687
X175.768Y-110.541
X175.768Y-110.541
X175.768Y-125.781
X175.768Y-125.781
X175.768Y-130.962
X175.768Y-130.962
X175.768Y-146.202
X175.768Y-146.202
X178.232Y-60.147
X178.232Y-62.687
X178.308Y-110.541
X178.308Y-110.541
X178.308Y-125.781
X178.308Y-125.781
X178.308Y-130.962
X178.308Y-130.962
X178.308Y-146.202
X178.308Y-146.202
X180.772Y-60.147
X180.772Y-62.687
X180.848Y-110.541
X180.848Y-110.541
X180.848Y-125.781
X180.848Y-125.781
X180.848Y-130.962
X180.848Y-130.962
X180.848Y-146.202
X180.848Y-146.202
X183.312Y-60.147
X183.312Y-62.687
X183.388Y-110.541
X183.388Y-110.541
X183.388Y-125.781
X183.388Y-125.781
X183.388Y-130.962
X183.388Y-130.962
X183.388Y-146.202
X183.388Y-146.202
X185.852Y-60.147
X185.852Y-62.687
X185.928Y-110.541
X185.928Y-110.541
X185.928Y-125.781
X185.928Y-125.781
X185.928Y-130.962
X185.928Y-130.962
X185.928Y-146.202
X185.928Y-146.202
X188.392Y-60.147
X188.392Y-62.687
X188.468Y-110.541
X188.468Y-110.541
X188.468Y-125.781
X188.468Y-125.781
X188.468Y-130.962
X188.468Y-130.962
X188.468Y-146.202
X188.468Y-146.202
X190.932Y-60.147
X190.932Y-62.687
X191.008Y-110.541
X191.008Y-110.541
X191.008Y-125.781
X191.008Y-125.781
X191.008Y-130.962
X191.008Y-130.962
X191.008Y-146.202
X191.008Y-146.202
X193.548Y-110.541
X193.548Y-110.541
X193.548Y-125.781
X193.548Y-125.781
X193.548Y-130.962
X193.548Y-130.962
X193.548Y-146.202
X193.548Y-146.202
X196.088Y-110.541
X196.088Y-110.541
X196.088Y-125.781
X196.088Y-125.781
X196.088Y-130.962
X196.088Y-130.962
X196.088Y-146.202
X196.088Y-146.202
X198.628Y-110.541
X198.628Y-110.541
X198.628Y-125.781
X198.628Y-125.781
X198.628Y-130.962
X198.628Y-130.962
X198.628Y-146.202
X198.628Y-146.202
X201.168Y-110.541
X201.168Y-110.541
X201.168Y-125.781
X201.168Y-125.781
X201.168Y-130.962
X201.168Y-130.962
X201.168Y-146.202
X201.168Y-146.202
X203.708Y-110.541
X203.708Y-110.541
X203.708Y-125.781
X203.708Y-125.781
X203.708Y-130.962
X203.708Y-130.962
X203.708Y-146.202
X203.708Y-146.202
X206.248Y-110.541
X206.248Y-110.541
X206.248Y-125.781
X206.248Y-125.781
X206.248Y-130.962
X206.248Y-130.962
X206.248Y-146.202
X206.248Y-146.202
X208.788Y-110.541
X208.788Y-110.541
X208.788Y-125.781
X208.788Y-125.781
X208.788Y-130.962
X208.788Y-130.962
X208.788Y-146.202
X208.788Y-146.202
X211.328Y-110.541
X211.328Y-110.541
X211.328Y-125.781
X211.328Y-125.781
X211.328Y-130.962
X211.328Y-130.962
X211.328Y-146.202
X211.328Y-146.202
X213.868Y-110.541
X213.868Y-125.781
X213.868Y-130.962
X213.868Y-146.202
T8
X37.937Y-38.169
X37.937Y-40.669
X40.437Y-38.169
X40.437Y-40.669
X42.937Y-38.169
X42.937Y-40.669
X49.403Y-42.494
X49.403Y-45.034
X51.943Y-42.494
X51.943Y-45.034
X54.483Y-42.494
X54.483Y-45.034
X100.609Y-34.722
X101.994Y-31.882
X103.379Y-34.722
X104.764Y-31.882
X106.149Y-34.722
X107.534Y-31.882
X108.919Y-34.722
X110.304Y-31.882
X111.689Y-34.722
X113.074Y-31.882
X114.459Y-34.722
X115.844Y-31.882
X117.229Y-34.722
X118.614Y-31.882
X119.999Y-34.722
X121.384Y-31.882
X122.769Y-34.722
X124.154Y-31.882
X125.539Y-34.722
X126.924Y-31.882
X128.309Y-34.722
X129.694Y-31.882
X131.079Y-34.722
X132.464Y-31.882
X133.849Y-34.722
X161.9Y-34.696
X163.285Y-31.856
X164.67Y-34.696
X166.055Y-31.856
X167.44Y-34.696
X168.825Y-31.856
X170.21Y-34.696
X171.595Y-31.856
X172.98Y-34.696
X174.365Y-31.856
X175.75Y-34.696
X177.135Y-31.856
X178.52Y-34.696
X179.905Y-31.856
X181.29Y-34.696
X182.675Y-31.856
X184.06Y-34.696
X185.445Y-31.856
X186.83Y-34.696
X197.256Y-41.681
X197.256Y-44.221
X199.796Y-41.681
X199.796Y-44.221
X202.336Y-41.681
X202.336Y-44.221
X204.876Y-41.681
X204.876Y-44.221
X221.463Y-45.542
X221.463Y-48.082
X221.463Y-50.622
X224.003Y-45.542
X224.003Y-48.082
X224.003Y-50.622
X227.051Y-129.413
X227.051Y-131.953
X229.591Y-129.413
X229.591Y-131.953
X232.131Y-129.413
X232.131Y-131.953
T9
X233.07Y-51.257
X233.07Y-53.797
X233.07Y-56.337
X233.07Y-58.877
X233.07Y-61.417
X233.07Y-63.957
X233.07Y-66.497
X233.07Y-69.037
X233.07Y-71.577
X233.07Y-74.117
X233.07Y-76.657
X233.07Y-79.197
X233.07Y-81.737
X233.07Y-84.277
X233.07Y-86.817
X233.07Y-89.357
X233.07Y-91.897
X233.07Y-94.437
X233.07Y-96.977
X233.07Y-99.517
X233.07Y-102.057
X233.07Y-104.597
X233.07Y-107.137
X233.07Y-109.677
X233.07Y-112.217
X235.61Y-51.257
X235.61Y-53.797
X235.61Y-56.337
X235.61Y-58.877
X235.61Y-61.417
X235.61Y-63.957
X235.61Y-66.497
X235.61Y-69.037
X235.61Y-71.577
X235.61Y-74.117
X235.61Y-76.657
X235.61Y-79.197
X235.61Y-81.737
X235.61Y-84.277
X235.61Y-86.817
X235.61Y-89.357
X235.61Y-91.897
X235.61Y-94.437
X235.61Y-96.977
X235.61Y-99.517
X235.61Y-102.057
X235.61Y-104.597
X235.61Y-107.137
X235.61Y-109.677
X235.61Y-112.217
T11
X34.011Y-49.987
X34.011Y-54.987
X34.011Y-67.158
X34.011Y-72.158
T12
X170.637Y-74.727
X170.637Y-104.187
T13
X125.854Y-91.757
X125.854Y-97.257
X130.054Y-91.757
X130.054Y-97.257
X134.254Y-91.757
X134.254Y-97.257
X138.454Y-91.757
X138.454Y-97.257
X142.654Y-91.757
X142.654Y-97.257
X146.854Y-91.757
X146.854Y-97.257
X151.054Y-91.757
X151.054Y-97.257
T14
X35.437Y-33.169
X40.437Y-28.169
X45.437Y-33.169
T15
X93.679Y-33.302
X140.779Y-33.302
T16
X154.97Y-33.296
X193.76Y-33.296
T8
G00X226.754Y-27.711
M15
G01X227.754Y-27.711
M16
G05
G00X226.754Y-33.811
M15
G01X227.754Y-33.811
M16
G05
G00X226.754Y-39.311
M15
G01X227.754Y-39.311
M16
G05
G00X228.754Y-30.111
M15
G01X229.754Y-30.111
M16
G05
G00X228.754Y-35.611
M15
G01X229.754Y-35.611
M16
G05
T10
G00X50.979Y-29.08
M15
G01X50.979Y-30.503
M16
G05
G00X57.028Y-28.981
M15
G01X58.45Y-28.981
M16
G05
G00X64.499Y-29.08
M15
G01X64.499Y-30.503
M16
G05
G00X70.08Y-29.08
M15
G01X70.08Y-30.503
M16
G05
G00X76.128Y-28.981
M15
G01X77.551Y-28.981
M16
G05
G00X83.6Y-29.08
M15
G01X83.6Y-30.503
M16
G05
G00X203.905Y-29.08
M15
G01X203.905Y-30.503
M16
G05
G00X209.954Y-28.981
M15
G01X211.376Y-28.981
M16
G05
G00X217.425Y-29.08
M15
G01X217.425Y-30.503
M16
G05
M30
