%TF.GenerationSoftware,KiCad,Pcbnew,9.0.7*%
%TF.CreationDate,2026-06-07T17:23:38+05:00*%
%TF.ProjectId,ClassicIIRevB,436c6173-7369-4634-9949-526576422e6b,rev?*%
%TF.SameCoordinates,Original*%
%TF.FileFunction,Paste,Bot*%
%TF.FilePolarity,Positive*%
%FSLAX46Y46*%
G04 Gerber Fmt 4.6, Leading zero omitted, Abs format (unit mm)*
G04 Created by KiCad (PCBNEW 9.0.7) date 2026-06-07 17:23:38*
%MOMM*%
%LPD*%
G01*
G04 APERTURE LIST*
G04 Aperture macros list*
%AMRoundRect*
0 Rectangle with rounded corners*
0 $1 Rounding radius*
0 $2 $3 $4 $5 $6 $7 $8 $9 X,Y pos of 4 corners*
0 Add a 4 corners polygon primitive as box body*
4,1,4,$2,$3,$4,$5,$6,$7,$8,$9,$2,$3,0*
0 Add four circle primitives for the rounded corners*
1,1,$1+$1,$2,$3*
1,1,$1+$1,$4,$5*
1,1,$1+$1,$6,$7*
1,1,$1+$1,$8,$9*
0 Add four rect primitives between the rounded corners*
20,1,$1+$1,$2,$3,$4,$5,0*
20,1,$1+$1,$4,$5,$6,$7,0*
20,1,$1+$1,$6,$7,$8,$9,0*
20,1,$1+$1,$8,$9,$2,$3,0*%
G04 Aperture macros list end*
%ADD10RoundRect,0.264583X0.370417X0.560917X-0.370417X0.560917X-0.370417X-0.560917X0.370417X-0.560917X0*%
%ADD11RoundRect,0.254000X0.508000X0.254000X-0.508000X0.254000X-0.508000X-0.254000X0.508000X-0.254000X0*%
%ADD12RoundRect,0.254000X-0.508000X-0.254000X0.508000X-0.254000X0.508000X0.254000X-0.508000X0.254000X0*%
%ADD13RoundRect,0.327868X0.672132X0.772132X-0.672132X0.772132X-0.672132X-0.772132X0.672132X-0.772132X0*%
%ADD14RoundRect,0.264583X-0.370417X-0.560917X0.370417X-0.560917X0.370417X0.560917X-0.370417X0.560917X0*%
%ADD15RoundRect,0.391667X-1.075833X-0.783333X1.075833X-0.783333X1.075833X0.783333X-1.075833X0.783333X0*%
%ADD16RoundRect,0.327868X-0.672132X-0.772132X0.672132X-0.772132X0.672132X0.772132X-0.672132X0.772132X0*%
%ADD17R,1.905000X1.905000*%
%ADD18O,2.000000X0.635000*%
%ADD19RoundRect,0.391667X1.075833X0.783333X-1.075833X0.783333X-1.075833X-0.783333X1.075833X-0.783333X0*%
%ADD20RoundRect,0.239622X0.585878X0.395378X-0.585878X0.395378X-0.585878X-0.395378X0.585878X-0.395378X0*%
G04 APERTURE END LIST*
D10*
%TO.C,R55*%
X189103000Y-89281000D03*
X186817000Y-89281000D03*
%TD*%
D11*
%TO.C,C50*%
X181127400Y-67081400D03*
X178993800Y-67081400D03*
%TD*%
%TO.C,C104*%
X45491400Y-120650000D03*
X43357800Y-120650000D03*
%TD*%
D12*
%TO.C,C2*%
X182880000Y-39725600D03*
X185013600Y-39725600D03*
%TD*%
D11*
%TO.C,C45*%
X44881800Y-59563000D03*
X42748200Y-59563000D03*
%TD*%
D12*
%TO.C,C29*%
X213969600Y-47421800D03*
X216103200Y-47421800D03*
%TD*%
%TO.C,C16*%
X233705400Y-38811200D03*
X235839000Y-38811200D03*
%TD*%
D10*
%TO.C,R81*%
X35712400Y-104724200D03*
X33426400Y-104724200D03*
%TD*%
D11*
%TO.C,C46*%
X44881800Y-62611000D03*
X42748200Y-62611000D03*
%TD*%
D10*
%TO.C,R15*%
X228523800Y-62509400D03*
X226237800Y-62509400D03*
%TD*%
D11*
%TO.C,C65*%
X203454000Y-77698600D03*
X201320400Y-77698600D03*
%TD*%
D10*
%TO.C,R14*%
X43561000Y-50546000D03*
X41275000Y-50546000D03*
%TD*%
D11*
%TO.C,C89*%
X151130000Y-102768400D03*
X148996400Y-102768400D03*
%TD*%
D13*
%TO.C,L8*%
X76657200Y-75793600D03*
X72085200Y-75793600D03*
%TD*%
D12*
%TO.C,C66*%
X186639200Y-77317600D03*
X188772800Y-77317600D03*
%TD*%
D11*
%TO.C,C108*%
X223799400Y-58623200D03*
X221665800Y-58623200D03*
%TD*%
D14*
%TO.C,R61*%
X56210200Y-89992200D03*
X58496200Y-89992200D03*
%TD*%
D10*
%TO.C,R35*%
X61341000Y-66167000D03*
X59055000Y-66167000D03*
%TD*%
D11*
%TO.C,C59*%
X80416400Y-71831200D03*
X78282800Y-71831200D03*
%TD*%
D14*
%TO.C,R38*%
X215722200Y-71602600D03*
X218008200Y-71602600D03*
%TD*%
D12*
%TO.C,C18*%
X213969600Y-39725600D03*
X216103200Y-39725600D03*
%TD*%
D10*
%TO.C,R8*%
X216585800Y-54356000D03*
X214299800Y-54356000D03*
%TD*%
D14*
%TO.C,R75*%
X49276000Y-99568000D03*
X51562000Y-99568000D03*
%TD*%
D10*
%TO.C,R77*%
X69672200Y-101600000D03*
X67386200Y-101600000D03*
%TD*%
%TO.C,R31*%
X51892200Y-62661800D03*
X49606200Y-62661800D03*
%TD*%
D12*
%TO.C,C22*%
X213969600Y-43611800D03*
X216103200Y-43611800D03*
%TD*%
D10*
%TO.C,R91*%
X214020400Y-138379200D03*
X211734400Y-138379200D03*
%TD*%
D12*
%TO.C,C73*%
X219049600Y-85547200D03*
X221183200Y-85547200D03*
%TD*%
D14*
%TO.C,R20*%
X90855800Y-57099200D03*
X93141800Y-57099200D03*
%TD*%
D12*
%TO.C,C67*%
X143357600Y-79197200D03*
X145491200Y-79197200D03*
%TD*%
D10*
%TO.C,R17*%
X221335600Y-63677800D03*
X219049600Y-63677800D03*
%TD*%
D14*
%TO.C,R80*%
X67056000Y-104597200D03*
X69342000Y-104597200D03*
%TD*%
%TO.C,R92*%
X108966000Y-135178800D03*
X111252000Y-135178800D03*
%TD*%
D10*
%TO.C,R4*%
X190728600Y-47371000D03*
X188442600Y-47371000D03*
%TD*%
D12*
%TO.C,C27*%
X163042600Y-43561000D03*
X165176200Y-43561000D03*
%TD*%
D14*
%TO.C,R93*%
X96951800Y-135178800D03*
X99237800Y-135178800D03*
%TD*%
D10*
%TO.C,R79*%
X100507800Y-104952800D03*
X98221800Y-104952800D03*
%TD*%
%TO.C,R21*%
X74930000Y-56642000D03*
X72644000Y-56642000D03*
%TD*%
%TO.C,R5*%
X216179400Y-51206400D03*
X213893400Y-51206400D03*
%TD*%
D11*
%TO.C,C60*%
X70764400Y-71831200D03*
X68630800Y-71831200D03*
%TD*%
D12*
%TO.C,C83*%
X156057600Y-97637600D03*
X158191200Y-97637600D03*
%TD*%
D11*
%TO.C,C33*%
X46405800Y-46863000D03*
X44272200Y-46863000D03*
%TD*%
D14*
%TO.C,R87*%
X57251600Y-119888000D03*
X59537600Y-119888000D03*
%TD*%
%TO.C,R27*%
X194665600Y-62611000D03*
X196951600Y-62611000D03*
%TD*%
D15*
%TO.C,C84*%
X87192500Y-95250000D03*
X91877500Y-95250000D03*
%TD*%
D10*
%TO.C,R89*%
X158699200Y-128447800D03*
X156413200Y-128447800D03*
%TD*%
D14*
%TO.C,R25*%
X59055000Y-59791600D03*
X61341000Y-59791600D03*
%TD*%
D11*
%TO.C,C58*%
X97815400Y-74447400D03*
X95681800Y-74447400D03*
%TD*%
%TO.C,C96*%
X35483800Y-100990400D03*
X33350200Y-100990400D03*
%TD*%
D10*
%TO.C,C69*%
X51892200Y-75412600D03*
X49606200Y-75412600D03*
%TD*%
D11*
%TO.C,C95*%
X46431200Y-101752400D03*
X44297600Y-101752400D03*
%TD*%
D16*
%TO.C,L11*%
X178790600Y-104114600D03*
X183362600Y-104114600D03*
%TD*%
D11*
%TO.C,C77*%
X78917800Y-86233000D03*
X76784200Y-86233000D03*
%TD*%
D10*
%TO.C,R18*%
X205155800Y-57683400D03*
X202869800Y-57683400D03*
%TD*%
%TO.C,R73*%
X59156600Y-98323400D03*
X56870600Y-98323400D03*
%TD*%
D11*
%TO.C,C75*%
X196342000Y-84886800D03*
X194208400Y-84886800D03*
%TD*%
D10*
%TO.C,R19*%
X198551800Y-57785000D03*
X196265800Y-57785000D03*
%TD*%
%TO.C,R50*%
X114046000Y-85572600D03*
X111760000Y-85572600D03*
%TD*%
D12*
%TO.C,C37*%
X153060400Y-57150000D03*
X155194000Y-57150000D03*
%TD*%
D11*
%TO.C,C25*%
X171577000Y-43561000D03*
X169443400Y-43561000D03*
%TD*%
D15*
%TO.C,C93*%
X87192500Y-100177600D03*
X91877500Y-100177600D03*
%TD*%
D14*
%TO.C,R29*%
X66421000Y-63627000D03*
X68707000Y-63627000D03*
%TD*%
%TO.C,R51*%
X202717400Y-88671400D03*
X205003400Y-88671400D03*
%TD*%
D10*
%TO.C,R60*%
X64262000Y-90170000D03*
X61976000Y-90170000D03*
%TD*%
%TO.C,R33*%
X223139000Y-68630800D03*
X220853000Y-68630800D03*
%TD*%
D11*
%TO.C,C44*%
X45897800Y-53721000D03*
X43764200Y-53721000D03*
%TD*%
D10*
%TO.C,R13*%
X96139000Y-51866800D03*
X93853000Y-51866800D03*
%TD*%
D14*
%TO.C,R49*%
X148412200Y-86842600D03*
X150698200Y-86842600D03*
%TD*%
D11*
%TO.C,C91*%
X113055400Y-99949000D03*
X110921800Y-99949000D03*
%TD*%
D12*
%TO.C,C23*%
X182880000Y-43561000D03*
X185013600Y-43561000D03*
%TD*%
D10*
%TO.C,R97*%
X197459600Y-53340000D03*
X195173600Y-53340000D03*
%TD*%
D12*
%TO.C,C103*%
X49301400Y-120650000D03*
X51435000Y-120650000D03*
%TD*%
D17*
%TO.C,RC2*%
X59092900Y-52458900D03*
D18*
X59080400Y-50571400D03*
X59080400Y-49301400D03*
X59080400Y-48031400D03*
X59080400Y-46761400D03*
X59080400Y-45491400D03*
X59080400Y-44221400D03*
X59080400Y-42951400D03*
X59080400Y-41681400D03*
D17*
X59067900Y-39793900D03*
X69748400Y-39793900D03*
D18*
X69748400Y-41681400D03*
X69748400Y-42951400D03*
X69748400Y-44221400D03*
X69748400Y-45491400D03*
X69748400Y-46761400D03*
X69748400Y-48031400D03*
X69748400Y-49301400D03*
X69748400Y-50571400D03*
D17*
X69735900Y-52458900D03*
%TD*%
D10*
%TO.C,R30*%
X61341000Y-62992000D03*
X59055000Y-62992000D03*
%TD*%
D12*
%TO.C,C55*%
X207975200Y-71958200D03*
X210108800Y-71958200D03*
%TD*%
%TO.C,C42*%
X201980800Y-61595000D03*
X204114400Y-61595000D03*
%TD*%
D11*
%TO.C,C87*%
X213868000Y-103962200D03*
X211734400Y-103962200D03*
%TD*%
D10*
%TO.C,R64*%
X221335600Y-93827600D03*
X219049600Y-93827600D03*
%TD*%
D11*
%TO.C,C68*%
X113538000Y-75920600D03*
X111404400Y-75920600D03*
%TD*%
D12*
%TO.C,C64*%
X210972400Y-77698600D03*
X213106000Y-77698600D03*
%TD*%
D10*
%TO.C,R78*%
X63957200Y-101447600D03*
X61671200Y-101447600D03*
%TD*%
%TO.C,R70*%
X214604600Y-97053400D03*
X212318600Y-97053400D03*
%TD*%
D11*
%TO.C,C98*%
X141046200Y-115468400D03*
X138912600Y-115468400D03*
%TD*%
D12*
%TO.C,C72*%
X60071000Y-80213200D03*
X62204600Y-80213200D03*
%TD*%
D11*
%TO.C,C80*%
X87630000Y-82169000D03*
X85496400Y-82169000D03*
%TD*%
%TO.C,C40*%
X46405800Y-43942000D03*
X44272200Y-43942000D03*
%TD*%
D16*
%TO.C,L10*%
X122453400Y-102438200D03*
X127025400Y-102438200D03*
%TD*%
D10*
%TO.C,R68*%
X35407600Y-94513400D03*
X33121600Y-94513400D03*
%TD*%
D14*
%TO.C,R53*%
X219049600Y-89865200D03*
X221335600Y-89865200D03*
%TD*%
D11*
%TO.C,C90*%
X118465600Y-102717600D03*
X116332000Y-102717600D03*
%TD*%
D14*
%TO.C,C112*%
X178816000Y-116738400D03*
X181102000Y-116738400D03*
%TD*%
D10*
%TO.C,R47*%
X202641200Y-84658200D03*
X200355200Y-84658200D03*
%TD*%
D14*
%TO.C,R39*%
X187172600Y-74091800D03*
X189458600Y-74091800D03*
%TD*%
%TO.C,R45*%
X98247200Y-79857600D03*
X100533200Y-79857600D03*
%TD*%
D12*
%TO.C,C86*%
X33197800Y-97663000D03*
X35331400Y-97663000D03*
%TD*%
D11*
%TO.C,C85*%
X69723000Y-95275400D03*
X67589400Y-95275400D03*
%TD*%
D10*
%TO.C,R88*%
X230022400Y-126111000D03*
X227736400Y-126111000D03*
%TD*%
D12*
%TO.C,C17*%
X233705400Y-42011600D03*
X235839000Y-42011600D03*
%TD*%
D11*
%TO.C,C52*%
X61264800Y-69342000D03*
X59131200Y-69342000D03*
%TD*%
D10*
%TO.C,R82*%
X58750200Y-108864400D03*
X56464200Y-108864400D03*
%TD*%
D14*
%TO.C,R90*%
X220421200Y-138404600D03*
X222707200Y-138404600D03*
%TD*%
D10*
%TO.C,R26*%
X214147400Y-63144400D03*
X211861400Y-63144400D03*
%TD*%
%TO.C,R46*%
X51892200Y-80162400D03*
X49606200Y-80162400D03*
%TD*%
D14*
%TO.C,R69*%
X219049600Y-96850200D03*
X221335600Y-96850200D03*
%TD*%
D11*
%TO.C,C101*%
X34340800Y-112268000D03*
X32207200Y-112268000D03*
%TD*%
D14*
%TO.C,R83*%
X94615000Y-110693200D03*
X96901000Y-110693200D03*
%TD*%
D10*
%TO.C,R84*%
X88366600Y-111633000D03*
X86080600Y-111633000D03*
%TD*%
D11*
%TO.C,C107*%
X45796200Y-123748800D03*
X43662600Y-123748800D03*
%TD*%
D12*
%TO.C,C39*%
X66370200Y-56261000D03*
X68503800Y-56261000D03*
%TD*%
%TO.C,C30*%
X198450200Y-47320200D03*
X200583800Y-47320200D03*
%TD*%
%TO.C,C35*%
X181635400Y-53746400D03*
X183769000Y-53746400D03*
%TD*%
D11*
%TO.C,C51*%
X87680800Y-67106800D03*
X85547200Y-67106800D03*
%TD*%
D14*
%TO.C,R44*%
X181102000Y-80772000D03*
X183388000Y-80772000D03*
%TD*%
D10*
%TO.C,R2*%
X210743800Y-43586400D03*
X208457800Y-43586400D03*
%TD*%
D12*
%TO.C,C94*%
X49504600Y-102666800D03*
X51638200Y-102666800D03*
%TD*%
D14*
%TO.C,R74*%
X49276000Y-96418400D03*
X51562000Y-96418400D03*
%TD*%
D11*
%TO.C,C113*%
X117856000Y-135178800D03*
X115722400Y-135178800D03*
%TD*%
D12*
%TO.C,C81*%
X186867800Y-97891600D03*
X189001400Y-97891600D03*
%TD*%
D14*
%TO.C,R23*%
X46482000Y-50419000D03*
X48768000Y-50419000D03*
%TD*%
D10*
%TO.C,R65*%
X214604600Y-93827600D03*
X212318600Y-93827600D03*
%TD*%
D14*
%TO.C,R52*%
X68554600Y-86410800D03*
X70840600Y-86410800D03*
%TD*%
D10*
%TO.C,R62*%
X51765200Y-89839800D03*
X49479200Y-89839800D03*
%TD*%
D14*
%TO.C,C111*%
X184734200Y-140639800D03*
X187020200Y-140639800D03*
%TD*%
D10*
%TO.C,R54*%
X214604600Y-90652600D03*
X212318600Y-90652600D03*
%TD*%
D11*
%TO.C,C19*%
X178562000Y-39725600D03*
X176428400Y-39725600D03*
%TD*%
D14*
%TO.C,R86*%
X80365600Y-117373400D03*
X82651600Y-117373400D03*
%TD*%
D11*
%TO.C,C92*%
X100431600Y-101396800D03*
X98298000Y-101396800D03*
%TD*%
D17*
%TO.C,RC1*%
X74358300Y-52458900D03*
D18*
X74345800Y-50571400D03*
X74345800Y-49301400D03*
X74345800Y-48031400D03*
X74345800Y-46761400D03*
X74345800Y-45491400D03*
X74345800Y-44221400D03*
X74345800Y-42951400D03*
X74345800Y-41681400D03*
D17*
X74333300Y-39793900D03*
X85013800Y-39793900D03*
D18*
X85013800Y-41681400D03*
X85013800Y-42951400D03*
X85013800Y-44221400D03*
X85013800Y-45491400D03*
X85013800Y-46761400D03*
X85013800Y-48031400D03*
X85013800Y-49301400D03*
X85013800Y-50571400D03*
D17*
X85001300Y-52458900D03*
%TD*%
D14*
%TO.C,R37*%
X42646600Y-68757800D03*
X44932600Y-68757800D03*
%TD*%
%TO.C,R48*%
X186944000Y-84201000D03*
X189230000Y-84201000D03*
%TD*%
%TO.C,R67*%
X40767000Y-94183200D03*
X43053000Y-94183200D03*
%TD*%
D10*
%TO.C,R9*%
X205917800Y-54102000D03*
X203631800Y-54102000D03*
%TD*%
%TO.C,R12*%
X159131000Y-53848000D03*
X156845000Y-53848000D03*
%TD*%
D14*
%TO.C,R24*%
X66421000Y-60096400D03*
X68707000Y-60096400D03*
%TD*%
D12*
%TO.C,C99*%
X86563200Y-117373400D03*
X88696800Y-117373400D03*
%TD*%
%TO.C,C62*%
X42748200Y-72009000D03*
X44881800Y-72009000D03*
%TD*%
D11*
%TO.C,C78*%
X196799200Y-90652600D03*
X194665600Y-90652600D03*
%TD*%
D10*
%TO.C,R66*%
X79619500Y-94107000D03*
X77333500Y-94107000D03*
%TD*%
D11*
%TO.C,C100*%
X76327000Y-117373400D03*
X74193400Y-117373400D03*
%TD*%
D10*
%TO.C,R96*%
X196392800Y-119583200D03*
X194106800Y-119583200D03*
%TD*%
D12*
%TO.C,C38*%
X83388200Y-57023000D03*
X85521800Y-57023000D03*
%TD*%
D11*
%TO.C,C54*%
X44881800Y-65024000D03*
X42748200Y-65024000D03*
%TD*%
D10*
%TO.C,R28*%
X228854000Y-66421000D03*
X226568000Y-66421000D03*
%TD*%
D11*
%TO.C,C114*%
X47040800Y-135178800D03*
X44907200Y-135178800D03*
%TD*%
D10*
%TO.C,R32*%
X51892200Y-65811400D03*
X49606200Y-65811400D03*
%TD*%
D12*
%TO.C,C49*%
X190373000Y-67411600D03*
X192506600Y-67411600D03*
%TD*%
D10*
%TO.C,R71*%
X78867000Y-98323400D03*
X76581000Y-98323400D03*
%TD*%
%TO.C,R22*%
X61341000Y-56642000D03*
X59055000Y-56642000D03*
%TD*%
D12*
%TO.C,C82*%
X177774600Y-98094800D03*
X179908200Y-98094800D03*
%TD*%
%TO.C,C63*%
X219049600Y-77622400D03*
X221183200Y-77622400D03*
%TD*%
D11*
%TO.C,C20*%
X171551600Y-39471600D03*
X169418000Y-39471600D03*
%TD*%
D10*
%TO.C,R6*%
X210769200Y-51358800D03*
X208483200Y-51358800D03*
%TD*%
D11*
%TO.C,C53*%
X51816000Y-69037200D03*
X49682400Y-69037200D03*
%TD*%
D12*
%TO.C,C57*%
X152882600Y-71577200D03*
X155016200Y-71577200D03*
%TD*%
D10*
%TO.C,R76*%
X139725400Y-102768400D03*
X137439400Y-102768400D03*
%TD*%
D12*
%TO.C,C70*%
X186639200Y-81000600D03*
X188772800Y-81000600D03*
%TD*%
D10*
%TO.C,R56*%
X43967400Y-87782400D03*
X41681400Y-87782400D03*
%TD*%
D11*
%TO.C,C32*%
X53898800Y-47498000D03*
X51765200Y-47498000D03*
%TD*%
D14*
%TO.C,R72*%
X67310000Y-98298000D03*
X69596000Y-98298000D03*
%TD*%
D10*
%TO.C,R58*%
X79832200Y-90474800D03*
X77546200Y-90474800D03*
%TD*%
D12*
%TO.C,C24*%
X176428400Y-43561000D03*
X178562000Y-43561000D03*
%TD*%
D10*
%TO.C,R42*%
X61468000Y-75692000D03*
X59182000Y-75692000D03*
%TD*%
D11*
%TO.C,C88*%
X201752200Y-101574600D03*
X199618600Y-101574600D03*
%TD*%
D19*
%TO.C,C76*%
X142982300Y-85902800D03*
X138297300Y-85902800D03*
%TD*%
D11*
%TO.C,C34*%
X191312800Y-54356000D03*
X189179200Y-54356000D03*
%TD*%
%TO.C,C1*%
X165176200Y-47472600D03*
X163042600Y-47472600D03*
%TD*%
D14*
%TO.C,R59*%
X67310000Y-92075000D03*
X69596000Y-92075000D03*
%TD*%
D12*
%TO.C,C47*%
X211455000Y-68376800D03*
X213588600Y-68376800D03*
%TD*%
D14*
%TO.C,R94*%
X86131400Y-135280400D03*
X88417400Y-135280400D03*
%TD*%
D10*
%TO.C,R7*%
X223520000Y-54381400D03*
X221234000Y-54381400D03*
%TD*%
D15*
%TO.C,C36*%
X145536300Y-53644800D03*
X150221300Y-53644800D03*
%TD*%
D10*
%TO.C,R34*%
X186969400Y-67081400D03*
X184683400Y-67081400D03*
%TD*%
D12*
%TO.C,C26*%
X160502600Y-40055800D03*
X162636200Y-40055800D03*
%TD*%
D10*
%TO.C,R95*%
X65963800Y-135178800D03*
X63677800Y-135178800D03*
%TD*%
D20*
%TO.C,C97*%
X146646900Y-107289600D03*
X143471900Y-107289600D03*
%TD*%
D14*
%TO.C,R63*%
X33121600Y-89941400D03*
X35407600Y-89941400D03*
%TD*%
D11*
%TO.C,C41*%
X46405800Y-56388000D03*
X44272200Y-56388000D03*
%TD*%
D14*
%TO.C,R10*%
X175742600Y-53746400D03*
X178028600Y-53746400D03*
%TD*%
D10*
%TO.C,R16*%
X216458800Y-58191400D03*
X214172800Y-58191400D03*
%TD*%
D20*
%TO.C,C61*%
X59982100Y-72517000D03*
X56807100Y-72517000D03*
%TD*%
D11*
%TO.C,C31*%
X185013600Y-47091600D03*
X182880000Y-47091600D03*
%TD*%
D14*
%TO.C,R85*%
X91846400Y-117373400D03*
X94132400Y-117373400D03*
%TD*%
%TO.C,R3*%
X188442600Y-43561000D03*
X190728600Y-43561000D03*
%TD*%
D11*
%TO.C,C102*%
X113842800Y-121031000D03*
X111709200Y-121031000D03*
%TD*%
D12*
%TO.C,C28*%
X90246200Y-43434000D03*
X92379800Y-43434000D03*
%TD*%
D14*
%TO.C,R1*%
X188442600Y-39725600D03*
X190728600Y-39725600D03*
%TD*%
D10*
%TO.C,R41*%
X226339400Y-77952600D03*
X224053400Y-77952600D03*
%TD*%
D15*
%TO.C,C48*%
X200552700Y-68427600D03*
X205237700Y-68427600D03*
%TD*%
D10*
%TO.C,R43*%
X221716600Y-80822800D03*
X219430600Y-80822800D03*
%TD*%
D16*
%TO.C,L9*%
X85623400Y-75311000D03*
X90195400Y-75311000D03*
%TD*%
D14*
%TO.C,R57*%
X200787000Y-91719400D03*
X203073000Y-91719400D03*
%TD*%
%TO.C,R11*%
X169316400Y-53746400D03*
X171602400Y-53746400D03*
%TD*%
%TO.C,R40*%
X49606200Y-72212200D03*
X51892200Y-72212200D03*
%TD*%
%TO.C,R36*%
X190296800Y-70307200D03*
X192582800Y-70307200D03*
%TD*%
D12*
%TO.C,C115*%
X50751309Y-39317438D03*
X52884909Y-39317438D03*
%TD*%
%TO.C,C105*%
X32207200Y-115468400D03*
X34340800Y-115468400D03*
%TD*%
M02*
